<svg xmlns="http://www.w3.org/2000/svg" width="1280" height="720" viewBox="0 0 1280 720"><g id="background"><rect x="0" y="0" width="1280" height="720" rx="0" fill="#F8FAFC" /></g><g id="header"><path fill="#2563EB" d="M60,40 H60 A4,4 0 0 1 64,44 V76 A4,4 0 0 1 60,80 H60 A4,4 0 0 1 56,76 V44 A4,4 0 0 1 60,40 Z" /><text x="78" y="67" font-family="Microsoft YaHei, PingFang SC, Arial, sans-serif" font-size="30" font-weight="700" fill="#111827" text-anchor="start">AI ??????????????</text><text x="78" y="96" font-family="Microsoft YaHei, PingFang SC, Arial, sans-serif" font-size="14" font-weight="400" fill="#475569" text-anchor="start">??????????????????????BOSS ???????????</text><text x="1210" y="62" font-family="Microsoft YaHei, PingFang SC, Arial, sans-serif" font-size="18" font-weight="700" fill="#94A3B8" text-anchor="end">02</text></g><g id="content"><g id="card-90-170"><path fill="#FFFFFF" stroke="#CBD5E1" stroke-width="1" d="M100,170 H250 A10,10 0 0 1 260,180 V290 A10,10 0 0 1 250,300 H100 A10,10 0 0 1 90,290 V180 A10,10 0 0 1 100,170 Z" /><path fill="#2563EB" d="M93,170 H93 A3,3 0 0 1 96,173 V297 A3,3 0 0 1 93,300 H93 A3,3 0 0 1 90,297 V173 A3,3 0 0 1 93,170 Z" />
  <g transform="translate(0, 0)" fill="#000000">
    <path d="M18.364 4.636a9 9 0 0 1 .203 12.519l-.203 .21l-4.243 4.242a3 3 0 0 1 -4.097 .135l-.144 -.135l-4.244 -4.243a9 9 0 0 1 12.728 -12.728zm-6.364 3.364a3 3 0 1 0 0 6a3 3 0 0 0 0 -6" />
  </g><text x="148" y="210" font-family="Microsoft YaHei, PingFang SC, Arial, sans-serif" font-size="18" font-weight="700" fill="#111827" text-anchor="start">?? S</text><text x="112" y="248" font-family="Microsoft YaHei, PingFang SC, Arial, sans-serif" font-size="14" font-weight="400" fill="#475569" text-anchor="start">Maze.start</text></g><line x1="260" y1="235" x2="315" y2="235" stroke="#CBD5E1" stroke-width="3" stroke-dasharray="8,4" /><g id="card-315-170"><path fill="#FFFFFF" stroke="#CBD5E1" stroke-width="1" d="M325,170 H475 A10,10 0 0 1 485,180 V290 A10,10 0 0 1 475,300 H325 A10,10 0 0 1 315,290 V180 A10,10 0 0 1 325,170 Z" /><path fill="#16A34A" d="M318,170 H318 A3,3 0 0 1 321,173 V297 A3,3 0 0 1 318,300 H318 A3,3 0 0 1 315,297 V173 A3,3 0 0 1 318,170 Z" />
  <g transform="translate(0, 0)" fill="#000000">
    <path d="M17 3.34a10 10 0 1 1 -15 8.66l.005 -.324a10 10 0 0 1 14.995 -8.336m-6.293 5.953a1 1 0 0 0 -1.414 0l-2 2a1 1 0 0 0 0 1.414l2 2a1 1 0 0 0 1.414 0l.083 -.094a1 1 0 0 0 -.083 -1.32l-1.292 -1.293l1.292 -1.293a1 1 0 0 0 0 -1.414m4 0a1 1 0 0 0 -1.414 0l-.083 .094a1 1 0 0 0 .083 1.32l1.292 1.293l-1.292 1.293a1 1 0 0 0 1.414 1.414l2 -2a1 1 0 0 0 0 -1.414z" />
  </g><text x="373" y="210" font-family="Microsoft YaHei, PingFang SC, Arial, sans-serif" font-size="18" font-weight="700" fill="#111827" text-anchor="start">3x3 ??</text><text x="337" y="248" font-family="Microsoft YaHei, PingFang SC, Arial, sans-serif" font-size="14" font-weight="400" fill="#475569" text-anchor="start">view_positions</text></g><line x1="485" y1="235" x2="540" y2="235" stroke="#CBD5E1" stroke-width="3" stroke-dasharray="8,4" /><g id="card-540-170"><path fill="#FFFFFF" stroke="#CBD5E1" stroke-width="1" d="M550,170 H700 A10,10 0 0 1 710,180 V290 A10,10 0 0 1 700,300 H550 A10,10 0 0 1 540,290 V180 A10,10 0 0 1 550,170 Z" /><path fill="#F59E0B" d="M543,170 H543 A3,3 0 0 1 546,173 V297 A3,3 0 0 1 543,300 H543 A3,3 0 0 1 540,297 V173 A3,3 0 0 1 543,170 Z" />
  <g transform="translate(0, 0)" fill="#000000">
    <path d="M17 3.34a10 10 0 1 1 -15 8.66l.005 -.324a10 10 0 0 1 14.995 -8.336m-6.293 5.953a1 1 0 0 0 -1.414 0l-2 2a1 1 0 0 0 0 1.414l2 2a1 1 0 0 0 1.414 0l.083 -.094a1 1 0 0 0 -.083 -1.32l-1.292 -1.293l1.292 -1.293a1 1 0 0 0 0 -1.414m4 0a1 1 0 0 0 -1.414 0l-.083 .094a1 1 0 0 0 .083 1.32l1.292 1.293l-1.292 1.293a1 1 0 0 0 1.414 1.414l2 -2a1 1 0 0 0 0 -1.414z" />
  </g><text x="598" y="210" font-family="Microsoft YaHei, PingFang SC, Arial, sans-serif" font-size="18" font-weight="700" fill="#111827" text-anchor="start">????</text><text x="562" y="248" font-family="Microsoft YaHei, PingFang SC, Arial, sans-serif" font-size="14" font-weight="400" fill="#475569" text-anchor="start">Decision</text></g><line x1="710" y1="235" x2="765" y2="235" stroke="#CBD5E1" stroke-width="3" stroke-dasharray="8,4" /><g id="card-765-170"><path fill="#FFFFFF" stroke="#CBD5E1" stroke-width="1" d="M775,170 H925 A10,10 0 0 1 935,180 V290 A10,10 0 0 1 925,300 H775 A10,10 0 0 1 765,290 V180 A10,10 0 0 1 775,170 Z" /><path fill="#DC2626" d="M768,170 H768 A3,3 0 0 1 771,173 V297 A3,3 0 0 1 768,300 H768 A3,3 0 0 1 765,297 V173 A3,3 0 0 1 768,170 Z" />
  <g transform="translate(0, 0)" fill="#000000">
    <path d="M17 3.34a10 10 0 1 1 -15 8.66l.005 -.324a10 10 0 0 1 14.995 -8.336m-6.293 5.953a1 1 0 0 0 -1.414 0l-2 2a1 1 0 0 0 0 1.414l2 2a1 1 0 0 0 1.414 0l.083 -.094a1 1 0 0 0 -.083 -1.32l-1.292 -1.293l1.292 -1.293a1 1 0 0 0 0 -1.414m4 0a1 1 0 0 0 -1.414 0l-.083 .094a1 1 0 0 0 .083 1.32l1.292 1.293l-1.292 1.293a1 1 0 0 0 1.414 1.414l2 -2a1 1 0 0 0 0 -1.414z" />
  </g><text x="823" y="210" font-family="Microsoft YaHei, PingFang SC, Arial, sans-serif" font-size="18" font-weight="700" fill="#111827" text-anchor="start">BOSS ?</text><text x="787" y="248" font-family="Microsoft YaHei, PingFang SC, Arial, sans-serif" font-size="14" font-weight="400" fill="#475569" text-anchor="start">BossResult</text></g><line x1="935" y1="235" x2="990" y2="235" stroke="#CBD5E1" stroke-width="3" stroke-dasharray="8,4" /><g id="card-990-170"><path fill="#FFFFFF" stroke="#CBD5E1" stroke-width="1" d="M1000,170 H1150 A10,10 0 0 1 1160,180 V290 A10,10 0 0 1 1150,300 H1000 A10,10 0 0 1 990,290 V180 A10,10 0 0 1 1000,170 Z" /><path fill="#2563EB" d="M993,170 H993 A3,3 0 0 1 996,173 V297 A3,3 0 0 1 993,300 H993 A3,3 0 0 1 990,297 V173 A3,3 0 0 1 993,170 Z" />
  <g transform="translate(0, 0)" fill="#000000">
    <path d="M17 3.34a10 10 0 1 1 -15 8.66l.005 -.324a10 10 0 0 1 14.995 -8.336m-6.293 5.953a1 1 0 0 0 -1.414 0l-2 2a1 1 0 0 0 0 1.414l2 2a1 1 0 0 0 1.414 0l.083 -.094a1 1 0 0 0 -.083 -1.32l-1.292 -1.293l1.292 -1.293a1 1 0 0 0 0 -1.414m4 0a1 1 0 0 0 -1.414 0l-.083 .094a1 1 0 0 0 .083 1.32l1.292 1.293l-1.292 1.293a1 1 0 0 0 1.414 1.414l2 -2a1 1 0 0 0 0 -1.414z" />
  </g><text x="1048" y="210" font-family="Microsoft YaHei, PingFang SC, Arial, sans-serif" font-size="18" font-weight="700" fill="#111827" text-anchor="start">?? E</text><text x="1012" y="248" font-family="Microsoft YaHei, PingFang SC, Arial, sans-serif" font-size="14" font-weight="400" fill="#475569" text-anchor="start">Maze.end</text></g><path fill="#FFFFFF" stroke="#CBD5E1" stroke-width="1" d="M94,365 H1180 A12,12 0 0 1 1192,377 V533 A12,12 0 0 1 1180,545 H94 A12,12 0 0 1 82,533 V377 A12,12 0 0 1 94,365 Z" /><text x="110" y="405" font-family="Microsoft YaHei, PingFang SC, Arial, sans-serif" font-size="24" font-weight="700" fill="#111827" text-anchor="start">????</text><text x="120" y="445" font-family="Microsoft YaHei, PingFang SC, Arial, sans-serif" font-size="17" font-weight="400" fill="#475569" text-anchor="start">?????radius=1??? 3x3 ?????</text><text x="120" y="473" font-family="Microsoft YaHei, PingFang SC, Arial, sans-serif" font-size="17" font-weight="400" fill="#475569" text-anchor="start">?????COIN_VALUE = 50??????TRAP_VALUE = -30?</text><text x="120" y="501" font-family="Microsoft YaHei, PingFang SC, Arial, sans-serif" font-size="17" font-weight="400" fill="#475569" text-anchor="start">?? BOSS ????????????????? CoinConsumption ???????</text><text x="120" y="529" font-family="Microsoft YaHei, PingFang SC, Arial, sans-serif" font-size="17" font-weight="400" fill="#475569" text-anchor="start">?????? resource_step_ratio???????????????????</text></g><g id="footer"><line x1="56" y1="684" x2="1224" y2="684" stroke="#CBD5E1" stroke-width="1" /><text x="56" y="704" font-family="Microsoft YaHei, PingFang SC, Arial, sans-serif" font-size="11" font-weight="400" fill="#94A3B8" text-anchor="start">AI ????????</text><text x="1224" y="704" font-family="Microsoft YaHei, PingFang SC, Arial, sans-serif" font-size="11" font-weight="400" fill="#94A3B8" text-anchor="end">Source: src/ai_player/model.py, exploration.py</text></g></svg>