<svg xmlns="http://www.w3.org/2000/svg" width="1280" height="720" viewBox="0 0 1280 720"><g id="background"><rect x="0" y="0" width="1280" height="720" rx="0" fill="#F8FAFC" /></g><g id="header"><path fill="#2563EB" d="M60,40 H60 A4,4 0 0 1 64,44 V76 A4,4 0 0 1 60,80 H60 A4,4 0 0 1 56,76 V44 A4,4 0 0 1 60,40 Z" /><text x="78" y="67" font-family="Microsoft YaHei, PingFang SC, Arial, sans-serif" font-size="30" font-weight="700" fill="#111827" text-anchor="start">???????????????????</text><text x="78" y="96" font-family="Microsoft YaHei, PingFang SC, Arial, sans-serif" font-size="14" font-weight="400" fill="#475569" text-anchor="start">???????????????????????????????? BOSS ????????</text><text x="1210" y="62" font-family="Microsoft YaHei, PingFang SC, Arial, sans-serif" font-size="18" font-weight="700" fill="#94A3B8" text-anchor="end">03</text></g><g id="content"><g id="kpi-????"><path fill="#FFFFFF" stroke="#CBD5E1" stroke-width="1" d="M90,155 H330 A10,10 0 0 1 340,165 V257 A10,10 0 0 1 330,267 H90 A10,10 0 0 1 80,257 V165 A10,10 0 0 1 90,155 Z" /><text x="100" y="185" font-family="Microsoft YaHei, PingFang SC, Arial, sans-serif" font-size="14" font-weight="600" fill="#475569" text-anchor="start">????</text><text x="100" y="227" font-family="Microsoft YaHei, PingFang SC, Arial, sans-serif" font-size="34" font-weight="800" fill="#2563EB" text-anchor="start">15 x 15</text><text x="100" y="253" font-family="Microsoft YaHei, PingFang SC, Arial, sans-serif" font-size="12" font-weight="400" fill="#94A3B8" text-anchor="start">??? maze_15_15.json</text></g><g id="kpi-????"><path fill="#FFFFFF" stroke="#CBD5E1" stroke-width="1" d="M385,155 H625 A10,10 0 0 1 635,165 V257 A10,10 0 0 1 625,267 H385 A10,10 0 0 1 375,257 V165 A10,10 0 0 1 385,155 Z" /><text x="395" y="185" font-family="Microsoft YaHei, PingFang SC, Arial, sans-serif" font-size="14" font-weight="600" fill="#475569" text-anchor="start">????</text><text x="395" y="227" font-family="Microsoft YaHei, PingFang SC, Arial, sans-serif" font-size="34" font-weight="800" fill="#16A34A" text-anchor="start">97</text><text x="395" y="253" font-family="Microsoft YaHei, PingFang SC, Arial, sans-serif" font-size="12" font-weight="400" fill="#94A3B8" text-anchor="start">APIValidator ?????</text></g><g id="kpi-????"><path fill="#FFFFFF" stroke="#CBD5E1" stroke-width="1" d="M680,155 H920 A10,10 0 0 1 930,165 V257 A10,10 0 0 1 920,267 H680 A10,10 0 0 1 670,257 V165 A10,10 0 0 1 680,155 Z" /><text x="690" y="185" font-family="Microsoft YaHei, PingFang SC, Arial, sans-serif" font-size="14" font-weight="600" fill="#475569" text-anchor="start">????</text><text x="690" y="227" font-family="Microsoft YaHei, PingFang SC, Arial, sans-serif" font-size="34" font-weight="800" fill="#F59E0B" text-anchor="start">32</text><text x="690" y="253" font-family="Microsoft YaHei, PingFang SC, Arial, sans-serif" font-size="12" font-weight="400" fill="#94A3B8" text-anchor="start">????? BFS ??</text></g><g id="kpi-????"><path fill="#FFFFFF" stroke="#CBD5E1" stroke-width="1" d="M975,155 H1215 A10,10 0 0 1 1225,165 V257 A10,10 0 0 1 1215,267 H975 A10,10 0 0 1 965,257 V165 A10,10 0 0 1 975,155 Z" /><text x="985" y="185" font-family="Microsoft YaHei, PingFang SC, Arial, sans-serif" font-size="14" font-weight="600" fill="#475569" text-anchor="start">????</text><text x="985" y="227" font-family="Microsoft YaHei, PingFang SC, Arial, sans-serif" font-size="34" font-weight="800" fill="#DC2626" text-anchor="start">61.9</text><text x="985" y="253" font-family="Microsoft YaHei, PingFang SC, Arial, sans-serif" font-size="12" font-weight="400" fill="#94A3B8" text-anchor="start">???BOSS ?????</text></g><path fill="#FFFFFF" stroke="#CBD5E1" stroke-width="1" d="M92,310 H608 A12,12 0 0 1 620,322 V543 A12,12 0 0 1 608,555 H92 A12,12 0 0 1 80,543 V322 A12,12 0 0 1 92,310 Z" /><text x="105" y="345" font-family="Microsoft YaHei, PingFang SC, Arial, sans-serif" font-size="24" font-weight="700" fill="#111827" text-anchor="start">JSON ????</text><text x="110" y="382" font-family="Consolas, Courier New, monospace" font-size="16" font-weight="400" fill="#475569" text-anchor="start">maze: ???????? # S E G T B</text><text x="110" y="412" font-family="Consolas, Courier New, monospace" font-size="16" font-weight="400" fill="#475569" text-anchor="start">B: BOSS ????????? [36, 25]</text><text x="110" y="442" font-family="Consolas, Courier New, monospace" font-size="16" font-weight="400" fill="#475569" text-anchor="start">PlayerSkills: [??, ??] ??</text><text x="110" y="472" font-family="Consolas, Courier New, monospace" font-size="16" font-weight="400" fill="#475569" text-anchor="start">minRouds: BOSS ??????</text><text x="110" y="502" font-family="Consolas, Courier New, monospace" font-size="16" font-weight="400" fill="#475569" text-anchor="start">CoinConsumption: ????????</text><path fill="#FFFFFF" stroke="#CBD5E1" stroke-width="1" d="M672,310 H1178 A12,12 0 0 1 1190,322 V543 A12,12 0 0 1 1178,555 H672 A12,12 0 0 1 660,543 V322 A12,12 0 0 1 672,310 Z" /><text x="685" y="345" font-family="Microsoft YaHei, PingFang SC, Arial, sans-serif" font-size="24" font-weight="700" fill="#111827" text-anchor="start">??????</text><path fill="#DBEAFE" d="M712,380 H888 A17,17 0 0 1 905,397 V397 A17,17 0 0 1 888,414 H712 A17,17 0 0 1 695,397 V397 A17,17 0 0 1 712,380 Z" /><text x="800" y="403" font-family="Microsoft YaHei, PingFang SC, Arial, sans-serif" font-size="14" font-weight="700" fill="#111827" text-anchor="middle">no_coins</text><path fill="#DCFCE7" d="M947,380 H1123 A17,17 0 0 1 1140,397 V397 A17,17 0 0 1 1123,414 H947 A17,17 0 0 1 930,397 V397 A17,17 0 0 1 947,380 Z" /><text x="1035" y="403" font-family="Microsoft YaHei, PingFang SC, Arial, sans-serif" font-size="14" font-weight="700" fill="#111827" text-anchor="middle">no_traps</text><path fill="#DBEAFE" d="M712,428 H888 A17,17 0 0 1 905,445 V445 A17,17 0 0 1 888,462 H712 A17,17 0 0 1 695,445 V445 A17,17 0 0 1 712,428 Z" /><text x="800" y="451" font-family="Microsoft YaHei, PingFang SC, Arial, sans-serif" font-size="14" font-weight="700" fill="#111827" text-anchor="middle">dense_coins</text><path fill="#DCFCE7" d="M947,428 H1123 A17,17 0 0 1 1140,445 V445 A17,17 0 0 1 1123,462 H947 A17,17 0 0 1 930,445 V445 A17,17 0 0 1 947,428 Z" /><text x="1035" y="451" font-family="Microsoft YaHei, PingFang SC, Arial, sans-serif" font-size="14" font-weight="700" fill="#111827" text-anchor="middle">trap_sandwich</text><path fill="#DBEAFE" d="M712,476 H888 A17,17 0 0 1 905,493 V493 A17,17 0 0 1 888,510 H712 A17,17 0 0 1 695,493 V493 A17,17 0 0 1 712,476 Z" /><text x="800" y="499" font-family="Microsoft YaHei, PingFang SC, Arial, sans-serif" font-size="14" font-weight="700" fill="#111827" text-anchor="middle">boss_insufficient_coins</text><path fill="#DCFCE7" d="M947,476 H1123 A17,17 0 0 1 1140,493 V493 A17,17 0 0 1 1123,510 H947 A17,17 0 0 1 930,493 V493 A17,17 0 0 1 947,476 Z" /><text x="1035" y="499" font-family="Microsoft YaHei, PingFang SC, Arial, sans-serif" font-size="14" font-weight="700" fill="#111827" text-anchor="middle">dead_end_coin</text></g><g id="footer"><line x1="56" y1="684" x2="1224" y2="684" stroke="#CBD5E1" stroke-width="1" /><text x="56" y="704" font-family="Microsoft YaHei, PingFang SC, Arial, sans-serif" font-size="11" font-weight="400" fill="#94A3B8" text-anchor="start">AI ????????</text><text x="1224" y="704" font-family="Microsoft YaHei, PingFang SC, Arial, sans-serif" font-size="11" font-weight="400" fill="#94A3B8" text-anchor="end">Source: map/maze_15_15.json, map/test_cases, main.py --evaluate</text></g></svg>