<svg xmlns="http://www.w3.org/2000/svg" width="1280" height="720" viewBox="0 0 1280 720"><g id="background"><rect x="0" y="0" width="1280" height="720" rx="0" fill="#F8FAFC" /></g><g id="header"><path fill="#2563EB" d="M60,40 H60 A4,4 0 0 1 64,44 V76 A4,4 0 0 1 60,80 H60 A4,4 0 0 1 56,76 V44 A4,4 0 0 1 60,40 Z" /><text x="78" y="67" font-family="Microsoft YaHei, PingFang SC, Arial, sans-serif" font-size="30" font-weight="700" fill="#111827" text-anchor="start">??????????GUI????????</text><text x="78" y="96" font-family="Microsoft YaHei, PingFang SC, Arial, sans-serif" font-size="14" font-weight="400" fill="#475569" text-anchor="start">?????????????? src???? map?????? gui ? picture??????????</text><text x="1210" y="62" font-family="Microsoft YaHei, PingFang SC, Arial, sans-serif" font-size="18" font-weight="700" fill="#94A3B8" text-anchor="end">04</text></g><g id="content"><path fill="#FFFFFF" stroke="#2563EB" stroke-width="2" d="M107,145 H1123 A12,12 0 0 1 1135,157 V215 A12,12 0 0 1 1123,227 H107 A12,12 0 0 1 95,215 V157 A12,12 0 0 1 107,145 Z" />
  <g transform="translate(0, 0)" fill="#000000">
    <path d="M12 2l.117 .007a1 1 0 0 1 .876 .876l.007 .117v4l.005 .15a2 2 0 0 0 1.838 1.844l.157 .006h4l.117 .007a1 1 0 0 1 .876 .876l.007 .117v9a3 3 0 0 1 -2.824 2.995l-.176 .005h-10a3 3 0 0 1 -2.995 -2.824l-.005 -.176v-14a3 3 0 0 1 2.824 -2.995l.176 -.005zm-1.553 11.106a1 1 0 0 0 -1.341 .447l-1 2a1 1 0 0 0 0 .894l1 2a1 1 0 0 0 1.341 .447l.102 -.058a1 1 0 0 0 .345 -1.283l-.776 -1.553l.776 -1.553a1 1 0 0 0 -.447 -1.341m4.447 .447a1 1 0 0 0 -1.341 -.447l-.102 .058a1 1 0 0 0 -.345 1.283l.774 1.553l-.775 1.553a1 1 0 0 0 1.788 .894l1 -2a1 1 0 0 0 0 -.894z" />
    <path d="M19 7h-4l-.001 -4.001z" />
  </g><text x="175" y="179" font-family="Microsoft YaHei, PingFang SC, Arial, sans-serif" font-size="22" font-weight="700" fill="#111827" text-anchor="start">???</text><text text-anchor="start" fill="#475569" font-family="Microsoft YaHei, PingFang SC, Arial, sans-serif" font-size="17" font-weight="400" x="340" y="173">main.py</text><text text-anchor="start" fill="#475569" font-family="Microsoft YaHei, PingFang SC, Arial, sans-serif" font-size="17" font-weight="400" x="340" y="195">run_ai_player.bat</text><line x1="615" y1="227" x2="615" y2="250" stroke="#CBD5E1" stroke-width="3" /><path fill="#FFFFFF" stroke="#16A34A" stroke-width="2" d="M107,250 H1123 A12,12 0 0 1 1135,262 V320 A12,12 0 0 1 1123,332 H107 A12,12 0 0 1 95,320 V262 A12,12 0 0 1 107,250 Z" />
  <g transform="translate(0, 0)" fill="#000000">
    <path d="M2 16.667a2.667 2.667 0 0 1 2.667 -2.667h2.666a2.667 2.667 0 0 1 2.667 2.667v2.666a2.667 2.667 0 0 1 -2.667 2.667h-2.666a2.667 2.667 0 0 1 -2.667 -2.667z" />
    <path d="M14 16.667a2.667 2.667 0 0 1 2.667 -2.667h2.666a2.667 2.667 0 0 1 2.667 2.667v2.666a2.667 2.667 0 0 1 -2.667 2.667h-2.666a2.667 2.667 0 0 1 -2.667 -2.667z" />
    <path d="M8 4.667a2.667 2.667 0 0 1 2.667 -2.667h2.666a2.667 2.667 0 0 1 2.667 2.667v2.666a2.667 2.667 0 0 1 -2.667 2.667h-2.666a2.667 2.667 0 0 1 -2.667 -2.667z" />
    <path d="M12 8a1 1 0 0 0 -1 1v2h-3c-1.645 0 -3 1.355 -3 3v1a1 1 0 0 0 1 1a1 1 0 0 0 1 -1v-1c0 -.564 .436 -1 1 -1h8c.564 0 1 .436 1 1v1a1 1 0 0 0 1 1a1 1 0 0 0 1 -1v-1c0 -1.645 -1.355 -3 -3 -3h-3v-2a1 1 0 0 0 -1 -1z" />
  </g><text x="175" y="284" font-family="Microsoft YaHei, PingFang SC, Arial, sans-serif" font-size="22" font-weight="700" fill="#111827" text-anchor="start">???</text><text text-anchor="start" fill="#475569" font-family="Microsoft YaHei, PingFang SC, Arial, sans-serif" font-size="17" font-weight="400" x="340" y="278">gui/qt_app.py</text><text text-anchor="start" fill="#475569" font-family="Microsoft YaHei, PingFang SC, Arial, sans-serif" font-size="17" font-weight="400" x="340" y="300">MazeCanvas, MainWindow</text><line x1="615" y1="332" x2="615" y2="355" stroke="#CBD5E1" stroke-width="3" /><path fill="#FFFFFF" stroke="#F59E0B" stroke-width="2" d="M107,355 H1123 A12,12 0 0 1 1135,367 V425 A12,12 0 0 1 1123,437 H107 A12,12 0 0 1 95,425 V367 A12,12 0 0 1 107,355 Z" />
  <g transform="translate(0, 0)" fill="#000000">
    <path d="M17 3.34a10 10 0 1 1 -15 8.66l.005 -.324a10 10 0 0 1 14.995 -8.336m-6.293 5.953a1 1 0 0 0 -1.414 0l-2 2a1 1 0 0 0 0 1.414l2 2a1 1 0 0 0 1.414 0l.083 -.094a1 1 0 0 0 -.083 -1.32l-1.292 -1.293l1.292 -1.293a1 1 0 0 0 0 -1.414m4 0a1 1 0 0 0 -1.414 0l-.083 .094a1 1 0 0 0 .083 1.32l1.292 1.293l-1.292 1.293a1 1 0 0 0 1.414 1.414l2 -2a1 1 0 0 0 0 -1.414z" />
  </g><text x="175" y="389" font-family="Microsoft YaHei, PingFang SC, Arial, sans-serif" font-size="22" font-weight="700" fill="#111827" text-anchor="start">???</text><text text-anchor="start" fill="#475569" font-family="Microsoft YaHei, PingFang SC, Arial, sans-serif" font-size="17" font-weight="400" x="340" y="383">src/ai_player</text><text text-anchor="start" fill="#475569" font-family="Microsoft YaHei, PingFang SC, Arial, sans-serif" font-size="17" font-weight="400" x="340" y="405">strategies, exploration</text><line x1="615" y1="437" x2="615" y2="460" stroke="#CBD5E1" stroke-width="3" /><path fill="#FFFFFF" stroke="#DC2626" stroke-width="2" d="M107,460 H1123 A12,12 0 0 1 1135,472 V530 A12,12 0 0 1 1123,542 H107 A12,12 0 0 1 95,530 V472 A12,12 0 0 1 107,460 Z" />
  <g transform="translate(0, 0)" fill="#000000">
    <path d="M3 15.731c1.968 1.507 5.234 2.269 9 2.269c3.76 0 7.025 -.76 9 -2.252v2.252c0 2.425 -3.895 3.936 -8.693 3.998l-.307 .002c-4.938 0 -9 -1.523 -9 -4z" />
    <path d="M3 9.731c1.968 1.507 5.234 2.269 9 2.269c3.76 0 7.025 -.76 9 -2.252v2.252c0 2.477 -4.062 4 -9 4c-4.798 0 -8.77 -1.438 -8.979 -3.795l-.016 -.101l-.005 -.104z" />
    <path d="M12 2c1.041 0 2.044 .068 2.977 .198l.469 .071q .84 .14 1.586 .348l.44 .131l.075 .024a11 11 0 0 1 .805 .3l.199 .086q .535 .242 .967 .53q .165 .11 .313 .225a3.8 3.8 0 0 1 .669 .668l.091 .128q .07 .105 .129 .211l.07 .139q .163 .35 .2 .73l.01 .211c0 2.477 -4.062 4 -9 4c-4.798 0 -8.77 -1.438 -8.979 -3.795a1 1 0 0 1 -.021 -.205l.005 -.104l.016 -.1c.205 -2.306 4.01 -3.733 8.667 -3.794z" />
  </g><text x="175" y="494" font-family="Microsoft YaHei, PingFang SC, Arial, sans-serif" font-size="22" font-weight="700" fill="#111827" text-anchor="start">???</text><text text-anchor="start" fill="#475569" font-family="Microsoft YaHei, PingFang SC, Arial, sans-serif" font-size="17" font-weight="400" x="340" y="488">map/ ? picture/</text><text text-anchor="start" fill="#475569" font-family="Microsoft YaHei, PingFang SC, Arial, sans-serif" font-size="17" font-weight="400" x="340" y="510">JSON ?????</text><path fill="#DBEAFE" d="M1168,145 H1168 A18,18 0 0 1 1186,163 V524 A18,18 0 0 1 1168,542 H1168 A18,18 0 0 1 1150,524 V163 A18,18 0 0 1 1168,145 Z" /><text x="1168" y="350" font-family="Microsoft YaHei, PingFang SC, Arial, sans-serif" font-size="16" font-weight="700" fill="#2563EB" text-anchor="middle">????????????????</text></g><g id="footer"><line x1="56" y1="684" x2="1224" y2="684" stroke="#CBD5E1" stroke-width="1" /><text x="56" y="704" font-family="Microsoft YaHei, PingFang SC, Arial, sans-serif" font-size="11" font-weight="400" fill="#94A3B8" text-anchor="start">AI ????????</text><text x="1224" y="704" font-family="Microsoft YaHei, PingFang SC, Arial, sans-serif" font-size="11" font-weight="400" fill="#94A3B8" text-anchor="end">Source: README.md, run_ai_player.bat, project files</text></g></svg>