<svg xmlns="http://www.w3.org/2000/svg" width="1280" height="720" viewBox="0 0 1280 720"><g id="background"><rect x="0" y="0" width="1280" height="720" rx="0" fill="#F8FAFC" /></g><g id="header"><path fill="#2563EB" d="M60,40 H60 A4,4 0 0 1 64,44 V76 A4,4 0 0 1 60,80 H60 A4,4 0 0 1 56,76 V44 A4,4 0 0 1 60,40 Z" /><text x="78" y="67" font-family="Microsoft YaHei, PingFang SC, Arial, sans-serif" font-size="30" font-weight="700" fill="#111827" text-anchor="start">??????????????????????</text><text x="78" y="96" font-family="Microsoft YaHei, PingFang SC, Arial, sans-serif" font-size="14" font-weight="400" fill="#475569" text-anchor="start">PPT ????????????????? dataclass ?????????????</text><text x="1210" y="62" font-family="Microsoft YaHei, PingFang SC, Arial, sans-serif" font-size="18" font-weight="700" fill="#94A3B8" text-anchor="end">05</text></g><g id="content"><path fill="#0F172A" d="M424,165 H856 A14,14 0 0 1 870,179 V221 A14,14 0 0 1 856,235 H424 A14,14 0 0 1 410,221 V179 A14,14 0 0 1 424,165 Z" /><text x="640" y="210" font-family="Microsoft YaHei, PingFang SC, Arial, sans-serif" font-size="26" font-weight="800" fill="#FFFFFF" text-anchor="middle">src/ai_player/model.py</text><g id="card-90-280"><path fill="#FFFFFF" stroke="#CBD5E1" stroke-width="1" d="M100,280 H600 A10,10 0 0 1 610,290 V382 A10,10 0 0 1 600,392 H100 A10,10 0 0 1 90,382 V290 A10,10 0 0 1 100,280 Z" /><path fill="#2563EB" d="M93,280 H93 A3,3 0 0 1 96,283 V389 A3,3 0 0 1 93,392 H93 A3,3 0 0 1 90,389 V283 A3,3 0 0 1 93,280 Z" />
  <g transform="translate(0, 0)" fill="#000000">
    <path d="M3 15.731c1.968 1.507 5.234 2.269 9 2.269c3.76 0 7.025 -.76 9 -2.252v2.252c0 2.425 -3.895 3.936 -8.693 3.998l-.307 .002c-4.938 0 -9 -1.523 -9 -4z" />
    <path d="M3 9.731c1.968 1.507 5.234 2.269 9 2.269c3.76 0 7.025 -.76 9 -2.252v2.252c0 2.477 -4.062 4 -9 4c-4.798 0 -8.77 -1.438 -8.979 -3.795l-.016 -.101l-.005 -.104z" />
    <path d="M12 2c1.041 0 2.044 .068 2.977 .198l.469 .071q .84 .14 1.586 .348l.44 .131l.075 .024a11 11 0 0 1 .805 .3l.199 .086q .535 .242 .967 .53q .165 .11 .313 .225a3.8 3.8 0 0 1 .669 .668l.091 .128q .07 .105 .129 .211l.07 .139q .163 .35 .2 .73l.01 .211c0 2.477 -4.062 4 -9 4c-4.798 0 -8.77 -1.438 -8.979 -3.795a1 1 0 0 1 -.021 -.205l.005 -.104l.016 -.1c.205 -2.306 4.01 -3.733 8.667 -3.794z" />
  </g><text x="148" y="320" font-family="Microsoft YaHei, PingFang SC, Arial, sans-serif" font-size="18" font-weight="700" fill="#111827" text-anchor="start">Maze</text><text x="112" y="358" font-family="Microsoft YaHei, PingFang SC, Arial, sans-serif" font-size="14" font-weight="400" fill="#475569" text-anchor="start">????????BOSS???????????????????</text></g><line x1="640" y1="235" x2="350" y2="280" stroke="#CBD5E1" stroke-width="2" stroke-dasharray="6,4" /><g id="card-700-280"><path fill="#FFFFFF" stroke="#CBD5E1" stroke-width="1" d="M710,280 H1210 A10,10 0 0 1 1220,290 V382 A10,10 0 0 1 1210,392 H710 A10,10 0 0 1 700,382 V290 A10,10 0 0 1 710,280 Z" /><path fill="#16A34A" d="M703,280 H703 A3,3 0 0 1 706,283 V389 A3,3 0 0 1 703,392 H703 A3,3 0 0 1 700,389 V283 A3,3 0 0 1 703,280 Z" />
  <g transform="translate(0, 0)" fill="#000000">
    <path d="M17 3.34a10 10 0 1 1 -15 8.66l.005 -.324a10 10 0 0 1 14.995 -8.336m-6.293 5.953a1 1 0 0 0 -1.414 0l-2 2a1 1 0 0 0 0 1.414l2 2a1 1 0 0 0 1.414 0l.083 -.094a1 1 0 0 0 -.083 -1.32l-1.292 -1.293l1.292 -1.293a1 1 0 0 0 0 -1.414m4 0a1 1 0 0 0 -1.414 0l-.083 .094a1 1 0 0 0 .083 1.32l1.292 1.293l-1.292 1.293a1 1 0 0 0 1.414 1.414l2 -2a1 1 0 0 0 0 -1.414z" />
  </g><text x="758" y="320" font-family="Microsoft YaHei, PingFang SC, Arial, sans-serif" font-size="18" font-weight="700" fill="#111827" text-anchor="start">Decision</text><text x="722" y="358" font-family="Microsoft YaHei, PingFang SC, Arial, sans-serif" font-size="14" font-weight="400" fill="#475569" text-anchor="start">???? next_pos???????????????</text></g><line x1="640" y1="235" x2="960" y2="280" stroke="#CBD5E1" stroke-width="2" stroke-dasharray="6,4" /><g id="card-90-430"><path fill="#FFFFFF" stroke="#CBD5E1" stroke-width="1" d="M100,430 H600 A10,10 0 0 1 610,440 V532 A10,10 0 0 1 600,542 H100 A10,10 0 0 1 90,532 V440 A10,10 0 0 1 100,430 Z" /><path fill="#F59E0B" d="M93,430 H93 A3,3 0 0 1 96,433 V539 A3,3 0 0 1 93,542 H93 A3,3 0 0 1 90,539 V433 A3,3 0 0 1 93,430 Z" />
  <g transform="translate(0, 0)" fill="#000000">
    <path d="M17.997 4.17a3 3 0 0 1 2.003 2.83v12a3 3 0 0 1 -3 3h-10a3 3 0 0 1 -3 -3v-12a3 3 0 0 1 2.003 -2.83a4 4 0 0 0 3.997 3.83h4a4 4 0 0 0 3.98 -3.597zm-8.997 6.83a1 1 0 0 0 -1 1v5a1 1 0 0 0 2 0v-5a1 1 0 0 0 -1 -1m3 4a1 1 0 0 0 -1 1v1a1 1 0 0 0 2 0v-1a1 1 0 0 0 -1 -1m3 -2a1 1 0 0 0 -1 1v3a1 1 0 0 0 2 0v-3a1 1 0 0 0 -1 -1m-1 -11a2 2 0 1 1 0 4h-4a2 2 0 1 1 0 -4z" />
  </g><text x="148" y="470" font-family="Microsoft YaHei, PingFang SC, Arial, sans-serif" font-size="18" font-weight="700" fill="#111827" text-anchor="start">StepSnapshot</text><text x="112" y="508" font-family="Microsoft YaHei, PingFang SC, Arial, sans-serif" font-size="14" font-weight="400" fill="#475569" text-anchor="start">GUI ?????????????????????????</text></g><line x1="640" y1="235" x2="350" y2="430" stroke="#CBD5E1" stroke-width="2" stroke-dasharray="6,4" /><g id="card-700-430"><path fill="#FFFFFF" stroke="#CBD5E1" stroke-width="1" d="M710,430 H1210 A10,10 0 0 1 1220,440 V532 A10,10 0 0 1 1210,542 H710 A10,10 0 0 1 700,532 V440 A10,10 0 0 1 710,430 Z" /><path fill="#DC2626" d="M703,430 H703 A3,3 0 0 1 706,433 V539 A3,3 0 0 1 703,542 H703 A3,3 0 0 1 700,539 V433 A3,3 0 0 1 703,430 Z" />
  <g transform="translate(0, 0)" fill="#000000">
    <path d="M3 2a1 1 0 0 1 1 1v17h17a1 1 0 0 1 .993 .883l.007 .117a1 1 0 0 1 -1 1h-18a1 1 0 0 1 -1 -1v-18a1 1 0 0 1 1 -1z" />
    <path d="M19 4a3 3 0 1 1 -.651 5.93l-2.002 3.202a3 3 0 1 1 -4.927 .337l-1.378 -1.655a3 3 0 1 1 1.538 -1.282l1.378 1.654a2.994 2.994 0 0 1 1.693 -.115l2.002 -3.203a3 3 0 0 1 2.347 -4.868z" />
  </g><text x="758" y="470" font-family="Microsoft YaHei, PingFang SC, Arial, sans-serif" font-size="18" font-weight="700" fill="#111827" text-anchor="start">AlgorithmResult</text><text text-anchor="start" fill="#475569" font-family="Microsoft YaHei, PingFang SC, Arial, sans-serif" font-size="14" font-weight="400" x="722" y="508">?????? total_steps?resource_step_ratio ?</text><text text-anchor="start" fill="#475569" font-family="Microsoft YaHei, PingFang SC, Arial, sans-serif" font-size="14" font-weight="400" x="722" y="528">boss_results?</text></g><line x1="640" y1="235" x2="960" y2="430" stroke="#CBD5E1" stroke-width="2" stroke-dasharray="6,4" /><text x="100" y="585" font-family="Consolas, Courier New, monospace" font-size="16" font-weight="400" fill="#475569" text-anchor="start">?????WALL/ROAD/START/END/COIN/TRAP/BOSS, COIN_VALUE=50, TRAP_VALUE=-30</text></g><g id="footer"><line x1="56" y1="684" x2="1224" y2="684" stroke="#CBD5E1" stroke-width="1" /><text x="56" y="704" font-family="Microsoft YaHei, PingFang SC, Arial, sans-serif" font-size="11" font-weight="400" fill="#94A3B8" text-anchor="start">AI ????????</text><text x="1224" y="704" font-family="Microsoft YaHei, PingFang SC, Arial, sans-serif" font-size="11" font-weight="400" fill="#94A3B8" text-anchor="end">Source: src/ai_player/model.py</text></g></svg>