<svg xmlns="http://www.w3.org/2000/svg" width="1280" height="720" viewBox="0 0 1280 720"><g id="background"><rect x="0" y="0" width="1280" height="720" rx="0" fill="#F8FAFC" /></g><g id="header"><path fill="#2563EB" d="M60,40 H60 A4,4 0 0 1 64,44 V76 A4,4 0 0 1 60,80 H60 A4,4 0 0 1 56,76 V44 A4,4 0 0 1 60,40 Z" /><text x="78" y="67" font-family="Microsoft YaHei, PingFang SC, Arial, sans-serif" font-size="30" font-weight="700" fill="#111827" text-anchor="start">?? bat ?????? GUI??????????? Q-Learning</text><text x="78" y="96" font-family="Microsoft YaHei, PingFang SC, Arial, sans-serif" font-size="14" font-weight="400" fill="#475569" text-anchor="start">????? run_ai_player.bat ?? main.py???????????????</text><text x="1210" y="62" font-family="Microsoft YaHei, PingFang SC, Arial, sans-serif" font-size="18" font-weight="700" fill="#94A3B8" text-anchor="end">06</text></g><g id="content"><path fill="#FFFFFF" stroke="#CBD5E1" stroke-width="1" d="M92,195 H258 A12,12 0 0 1 270,207 V363 A12,12 0 0 1 258,375 H92 A12,12 0 0 1 80,363 V207 A12,12 0 0 1 92,195 Z" /><text x="100" y="230" font-family="Microsoft YaHei, PingFang SC, Arial, sans-serif" font-size="22" font-weight="700" fill="#111827" text-anchor="start">??</text><text x="100" y="270" font-family="Consolas, Courier New, monospace" font-size="16" font-weight="700" fill="#2563EB" text-anchor="start">run_ai_player.bat</text><text x="100" y="320" font-family="Microsoft YaHei, PingFang SC, Arial, sans-serif" font-size="15" font-weight="400" fill="#475569" text-anchor="start">conda suanfa</text><line x1="270" y1="285" x2="306" y2="285" stroke="#2563EB" stroke-width="3" stroke-dasharray="8,4" /><path fill="#FFFFFF" stroke="#CBD5E1" stroke-width="1" d="M318,195 H484 A12,12 0 0 1 496,207 V363 A12,12 0 0 1 484,375 H318 A12,12 0 0 1 306,363 V207 A12,12 0 0 1 318,195 Z" /><text x="326" y="230" font-family="Microsoft YaHei, PingFang SC, Arial, sans-serif" font-size="22" font-weight="700" fill="#111827" text-anchor="start">??</text><text x="326" y="270" font-family="Consolas, Courier New, monospace" font-size="16" font-weight="700" fill="#2563EB" text-anchor="start">main.py</text><text x="326" y="320" font-family="Microsoft YaHei, PingFang SC, Arial, sans-serif" font-size="15" font-weight="400" fill="#475569" text-anchor="start">parse_args</text><line x1="496" y1="285" x2="532" y2="285" stroke="#2563EB" stroke-width="3" stroke-dasharray="8,4" /><path fill="#FFFFFF" stroke="#CBD5E1" stroke-width="1" d="M544,195 H710 A12,12 0 0 1 722,207 V363 A12,12 0 0 1 710,375 H544 A12,12 0 0 1 532,363 V207 A12,12 0 0 1 544,195 Z" /><text x="552" y="230" font-family="Microsoft YaHei, PingFang SC, Arial, sans-serif" font-size="22" font-weight="700" fill="#111827" text-anchor="start">??</text><text text-anchor="start" fill="#2563EB" font-family="Consolas, Courier New, monospace" font-size="16" font-weight="700" x="552" y="270">--gui / --console</text><text text-anchor="start" fill="#2563EB" font-family="Consolas, Courier New, monospace" font-size="16" font-weight="700" x="552" y="291">/ --compare</text><text x="552" y="320" font-family="Microsoft YaHei, PingFang SC, Arial, sans-serif" font-size="15" font-weight="400" fill="#475569" text-anchor="start">????</text><line x1="722" y1="285" x2="758" y2="285" stroke="#2563EB" stroke-width="3" stroke-dasharray="8,4" /><path fill="#FFFFFF" stroke="#CBD5E1" stroke-width="1" d="M770,195 H936 A12,12 0 0 1 948,207 V363 A12,12 0 0 1 936,375 H770 A12,12 0 0 1 758,363 V207 A12,12 0 0 1 770,195 Z" /><text x="778" y="230" font-family="Microsoft YaHei, PingFang SC, Arial, sans-serif" font-size="22" font-weight="700" fill="#111827" text-anchor="start">??</text><text text-anchor="start" fill="#2563EB" font-family="Consolas, Courier New, monospace" font-size="16" font-weight="700" x="778" y="270">run_full /</text><text text-anchor="start" fill="#2563EB" font-family="Consolas, Courier New, monospace" font-size="16" font-weight="700" x="778" y="291">run_compare</text><text x="778" y="320" font-family="Microsoft YaHei, PingFang SC, Arial, sans-serif" font-size="15" font-weight="400" fill="#475569" text-anchor="start">????</text><line x1="948" y1="285" x2="984" y2="285" stroke="#2563EB" stroke-width="3" stroke-dasharray="8,4" /><path fill="#FFFFFF" stroke="#CBD5E1" stroke-width="1" d="M996,195 H1162 A12,12 0 0 1 1174,207 V363 A12,12 0 0 1 1162,375 H996 A12,12 0 0 1 984,363 V207 A12,12 0 0 1 996,195 Z" /><text x="1004" y="230" font-family="Microsoft YaHei, PingFang SC, Arial, sans-serif" font-size="22" font-weight="700" fill="#111827" text-anchor="start">??</text><text x="1004" y="270" font-family="Consolas, Courier New, monospace" font-size="16" font-weight="700" fill="#2563EB" text-anchor="start">GUI / ?? / PNG</text><text x="1004" y="320" font-family="Microsoft YaHei, PingFang SC, Arial, sans-serif" font-size="15" font-weight="400" fill="#475569" text-anchor="start">????</text><path fill="#0F172A" d="M107,440 H1173 A12,12 0 0 1 1185,452 V533 A12,12 0 0 1 1173,545 H107 A12,12 0 0 1 95,533 V452 A12,12 0 0 1 107,440 Z" /><text x="120" y="470" font-family="Microsoft YaHei, PingFang SC, Arial, sans-serif" font-size="20" font-weight="700" fill="#FFFFFF" text-anchor="start">??????</text><text x="125" y="515" font-family="Consolas, Courier New, monospace" font-size="14" font-weight="700" fill="#DBEAFE" text-anchor="start">run_ai_player.bat gui</text><text x="330" y="515" font-family="Consolas, Courier New, monospace" font-size="14" font-weight="700" fill="#DBEAFE" text-anchor="start">run_ai_player.bat console</text><text x="535" y="515" font-family="Consolas, Courier New, monospace" font-size="14" font-weight="700" fill="#DBEAFE" text-anchor="start">run_ai_player.bat compare</text><text x="740" y="515" font-family="Consolas, Courier New, monospace" font-size="14" font-weight="700" fill="#DBEAFE" text-anchor="start">run_ai_player.bat report</text><text x="945" y="515" font-family="Consolas, Courier New, monospace" font-size="14" font-weight="700" fill="#DBEAFE" text-anchor="start">run_ai_player.bat qlearn</text></g><g id="footer"><line x1="56" y1="684" x2="1224" y2="684" stroke="#CBD5E1" stroke-width="1" /><text x="56" y="704" font-family="Microsoft YaHei, PingFang SC, Arial, sans-serif" font-size="11" font-weight="400" fill="#94A3B8" text-anchor="start">AI ????????</text><text x="1224" y="704" font-family="Microsoft YaHei, PingFang SC, Arial, sans-serif" font-size="11" font-weight="400" fill="#94A3B8" text-anchor="end">Source: run_ai_player.bat, main.py</text></g></svg>