<svg xmlns="http://www.w3.org/2000/svg" width="1280" height="720" viewBox="0 0 1280 720"><g id="background"><rect x="0" y="0" width="1280" height="720" rx="0" fill="#F8FAFC" /></g><g id="header"><path fill="#2563EB" d="M60,40 H60 A4,4 0 0 1 64,44 V76 A4,4 0 0 1 60,80 H60 A4,4 0 0 1 56,76 V44 A4,4 0 0 1 60,40 Z" /><text x="78" y="67" font-family="Microsoft YaHei, PingFang SC, Arial, sans-serif" font-size="30" font-weight="700" fill="#111827" text-anchor="start">???????????? APIValidator ??</text><text x="78" y="96" font-family="Microsoft YaHei, PingFang SC, Arial, sans-serif" font-size="14" font-weight="400" fill="#475569" text-anchor="start">?????????????????????????????????</text><text x="1210" y="62" font-family="Microsoft YaHei, PingFang SC, Arial, sans-serif" font-size="18" font-weight="700" fill="#94A3B8" text-anchor="end">07</text></g><g id="content"><path fill="#FFFFFF" stroke="#2563EB" stroke-width="2" d="M92,210 H253 A12,12 0 0 1 265,222 V388 A12,12 0 0 1 253,400 H92 A12,12 0 0 1 80,388 V222 A12,12 0 0 1 92,210 Z" /><text x="172" y="245" font-family="Microsoft YaHei, PingFang SC, Arial, sans-serif" font-size="24" font-weight="800" fill="#2563EB" text-anchor="middle">parse</text><text x="172" y="292" font-family="Microsoft YaHei, PingFang SC, Arial, sans-serif" font-size="18" font-weight="700" fill="#111827" text-anchor="middle">?? JSON</text><text x="172" y="340" font-family="Consolas, Courier New, monospace" font-size="14" font-weight="600" fill="#475569" text-anchor="middle">JsonMazeParser.parse</text><line x1="265" y1="305" x2="304" y2="305" stroke="#CBD5E1" stroke-width="3" stroke-dasharray="8,4" /><path fill="#FFFFFF" stroke="#16A34A" stroke-width="2" d="M316,210 H477 A12,12 0 0 1 489,222 V388 A12,12 0 0 1 477,400 H316 A12,12 0 0 1 304,388 V222 A12,12 0 0 1 316,210 Z" /><text x="396" y="245" font-family="Microsoft YaHei, PingFang SC, Arial, sans-serif" font-size="24" font-weight="800" fill="#16A34A" text-anchor="middle">matrix</text><text x="396" y="292" font-family="Microsoft YaHei, PingFang SC, Arial, sans-serif" font-size="18" font-weight="700" fill="#111827" text-anchor="middle">??? tile</text><text x="396" y="340" font-family="Consolas, Courier New, monospace" font-size="14" font-weight="600" fill="#475569" text-anchor="middle">_convert_matrix</text><line x1="489" y1="305" x2="528" y2="305" stroke="#CBD5E1" stroke-width="3" stroke-dasharray="8,4" /><path fill="#FFFFFF" stroke="#F59E0B" stroke-width="2" d="M540,210 H701 A12,12 0 0 1 713,222 V388 A12,12 0 0 1 701,400 H540 A12,12 0 0 1 528,388 V222 A12,12 0 0 1 540,210 Z" /><text x="620" y="245" font-family="Microsoft YaHei, PingFang SC, Arial, sans-serif" font-size="24" font-weight="800" fill="#F59E0B" text-anchor="middle">skills</text><text x="620" y="292" font-family="Microsoft YaHei, PingFang SC, Arial, sans-serif" font-size="18" font-weight="700" fill="#111827" text-anchor="middle">????</text><text x="620" y="340" font-family="Consolas, Courier New, monospace" font-size="14" font-weight="600" fill="#475569" text-anchor="middle">_parse_skills</text><line x1="713" y1="305" x2="752" y2="305" stroke="#CBD5E1" stroke-width="3" stroke-dasharray="8,4" /><path fill="#FFFFFF" stroke="#DC2626" stroke-width="2" d="M764,210 H925 A12,12 0 0 1 937,222 V388 A12,12 0 0 1 925,400 H764 A12,12 0 0 1 752,388 V222 A12,12 0 0 1 764,210 Z" /><text x="844" y="245" font-family="Microsoft YaHei, PingFang SC, Arial, sans-serif" font-size="24" font-weight="800" fill="#DC2626" text-anchor="middle">boss</text><text x="844" y="292" font-family="Microsoft YaHei, PingFang SC, Arial, sans-serif" font-size="18" font-weight="700" fill="#111827" text-anchor="middle">BOSS ??</text><text x="844" y="340" font-family="Consolas, Courier New, monospace" font-size="14" font-weight="600" fill="#475569" text-anchor="middle">_parse_bosses</text><line x1="937" y1="305" x2="976" y2="305" stroke="#CBD5E1" stroke-width="3" stroke-dasharray="8,4" /><path fill="#FFFFFF" stroke="#2563EB" stroke-width="2" d="M988,210 H1149 A12,12 0 0 1 1161,222 V388 A12,12 0 0 1 1149,400 H988 A12,12 0 0 1 976,388 V222 A12,12 0 0 1 988,210 Z" /><text x="1068" y="245" font-family="Microsoft YaHei, PingFang SC, Arial, sans-serif" font-size="24" font-weight="800" fill="#2563EB" text-anchor="middle">validate</text><text x="1068" y="292" font-family="Microsoft YaHei, PingFang SC, Arial, sans-serif" font-size="18" font-weight="700" fill="#111827" text-anchor="middle">????</text><text x="1068" y="340" font-family="Consolas, Courier New, monospace" font-size="14" font-weight="600" fill="#475569" text-anchor="middle">APIValidator.validate</text><text x="120" y="495" font-family="Microsoft YaHei, PingFang SC, Arial, sans-serif" font-size="15" font-weight="600" fill="#475569" text-anchor="middle">???????</text><text x="340" y="495" font-family="Microsoft YaHei, PingFang SC, Arial, sans-serif" font-size="15" font-weight="600" fill="#475569" text-anchor="middle">???????</text><text x="560" y="495" font-family="Microsoft YaHei, PingFang SC, Arial, sans-serif" font-size="15" font-weight="600" fill="#475569" text-anchor="middle">BOSS ???????</text><text text-anchor="middle" fill="#475569" font-family="Microsoft YaHei, PingFang SC, Arial, sans-serif" font-size="15" font-weight="600" x="780" y="495">????</text><text text-anchor="middle" fill="#475569" font-family="Microsoft YaHei, PingFang SC, Arial, sans-serif" font-size="15" font-weight="600" x="780" y="515">cooldown=0</text><text text-anchor="middle" fill="#475569" font-family="Microsoft YaHei, PingFang SC, Arial, sans-serif" font-size="15" font-weight="600" x="780" y="535">???</text><text x="1000" y="495" font-family="Microsoft YaHei, PingFang SC, Arial, sans-serif" font-size="15" font-weight="600" fill="#475569" text-anchor="middle">???????</text></g><g id="footer"><line x1="56" y1="684" x2="1224" y2="684" stroke="#CBD5E1" stroke-width="1" /><text x="56" y="704" font-family="Microsoft YaHei, PingFang SC, Arial, sans-serif" font-size="11" font-weight="400" fill="#94A3B8" text-anchor="start">AI ????????</text><text x="1224" y="704" font-family="Microsoft YaHei, PingFang SC, Arial, sans-serif" font-size="11" font-weight="400" fill="#94A3B8" text-anchor="end">Source: src/ai_player/maze_parser.py</text></g></svg>