<svg xmlns="http://www.w3.org/2000/svg" width="1280" height="720" viewBox="0 0 1280 720"><g id="background"><rect x="0" y="0" width="1280" height="720" rx="0" fill="#F8FAFC" /></g><g id="header"><path fill="#2563EB" d="M60,40 H60 A4,4 0 0 1 64,44 V76 A4,4 0 0 1 60,80 H60 A4,4 0 0 1 56,76 V44 A4,4 0 0 1 60,40 Z" /><text x="78" y="67" font-family="Microsoft YaHei, PingFang SC, Arial, sans-serif" font-size="30" font-weight="700" fill="#111827" text-anchor="start">??????????????????</text><text x="78" y="96" font-family="Microsoft YaHei, PingFang SC, Arial, sans-serif" font-size="14" font-weight="400" fill="#475569" text-anchor="start">BFS?A*?Dijkstra ?????????????????????????</text><text x="1210" y="62" font-family="Microsoft YaHei, PingFang SC, Arial, sans-serif" font-size="18" font-weight="700" fill="#94A3B8" text-anchor="end">08</text></g><g id="content"><g id="card-100-190"><path fill="#FFFFFF" stroke="#CBD5E1" stroke-width="1" d="M110,190 H410 A10,10 0 0 1 420,200 V450 A10,10 0 0 1 410,460 H110 A10,10 0 0 1 100,450 V200 A10,10 0 0 1 110,190 Z" /><path fill="#2563EB" d="M103,190 H103 A3,3 0 0 1 106,193 V457 A3,3 0 0 1 103,460 H103 A3,3 0 0 1 100,457 V193 A3,3 0 0 1 103,190 Z" />
  <g transform="translate(0, 0)" fill="#000000">
    <path d="M18 3a3 3 0 0 1 3 3v12a3 3 0 0 1 -3 3h-12a3 3 0 0 1 -3 -3v-12a3 3 0 0 1 3 -3h12zm-2.293 6.293a1 1 0 0 0 -1.414 0l-2.293 2.292l-1.293 -1.292a1 1 0 0 0 -1.414 0l-3 3a1 1 0 0 0 0 1.414l.094 .083a1 1 0 0 0 1.32 -.083l2.293 -2.292l1.293 1.292l.094 .083a1 1 0 0 0 1.32 -.083l2.293 -2.292l1.293 1.292a1 1 0 0 0 1.414 -1.414l-2 -2z" />
  </g><text x="158" y="230" font-family="Microsoft YaHei, PingFang SC, Arial, sans-serif" font-size="18" font-weight="700" fill="#111827" text-anchor="start">BFS</text><text text-anchor="start" fill="#475569" font-family="Microsoft YaHei, PingFang SC, Arial, sans-serif" font-size="14" font-weight="400" x="122" y="268">bfs_path</text><text text-anchor="start" fill="#475569" font-family="Microsoft YaHei, PingFang SC, Arial, sans-serif" font-size="14" font-weight="400" x="122" y="288">??????</text><text text-anchor="start" fill="#475569" font-family="Microsoft YaHei, PingFang SC, Arial, sans-serif" font-size="14" font-weight="400" x="122" y="308">????????????</text></g><g id="card-480-190"><path fill="#FFFFFF" stroke="#CBD5E1" stroke-width="1" d="M490,190 H790 A10,10 0 0 1 800,200 V450 A10,10 0 0 1 790,460 H490 A10,10 0 0 1 480,450 V200 A10,10 0 0 1 490,190 Z" /><path fill="#16A34A" d="M483,190 H483 A3,3 0 0 1 486,193 V457 A3,3 0 0 1 483,460 H483 A3,3 0 0 1 480,457 V193 A3,3 0 0 1 483,190 Z" />
  <g transform="translate(0, 0)" fill="#000000">
    <path d="M18 3a3 3 0 0 1 3 3v12a3 3 0 0 1 -3 3h-12a3 3 0 0 1 -3 -3v-12a3 3 0 0 1 3 -3h12zm-2.293 6.293a1 1 0 0 0 -1.414 0l-2.293 2.292l-1.293 -1.292a1 1 0 0 0 -1.414 0l-3 3a1 1 0 0 0 0 1.414l.094 .083a1 1 0 0 0 1.32 -.083l2.293 -2.292l1.293 1.292l.094 .083a1 1 0 0 0 1.32 -.083l2.293 -2.292l1.293 1.292a1 1 0 0 0 1.414 -1.414l-2 -2z" />
  </g><text x="538" y="230" font-family="Microsoft YaHei, PingFang SC, Arial, sans-serif" font-size="18" font-weight="700" fill="#111827" text-anchor="start">A*</text><text text-anchor="start" fill="#475569" font-family="Microsoft YaHei, PingFang SC, Arial, sans-serif" font-size="14" font-weight="400" x="502" y="268">astar_path</text><text text-anchor="start" fill="#475569" font-family="Microsoft YaHei, PingFang SC, Arial, sans-serif" font-size="14" font-weight="400" x="502" y="288">new_cost + manhattan</text><text text-anchor="start" fill="#475569" font-family="Microsoft YaHei, PingFang SC, Arial, sans-serif" font-size="14" font-weight="400" x="502" y="308">?????????</text></g><g id="card-860-190"><path fill="#FFFFFF" stroke="#CBD5E1" stroke-width="1" d="M870,190 H1170 A10,10 0 0 1 1180,200 V450 A10,10 0 0 1 1170,460 H870 A10,10 0 0 1 860,450 V200 A10,10 0 0 1 870,190 Z" /><path fill="#F59E0B" d="M863,190 H863 A3,3 0 0 1 866,193 V457 A3,3 0 0 1 863,460 H863 A3,3 0 0 1 860,457 V193 A3,3 0 0 1 863,190 Z" />
  <g transform="translate(0, 0)" fill="#000000">
    <path d="M18 3a3 3 0 0 1 3 3v12a3 3 0 0 1 -3 3h-12a3 3 0 0 1 -3 -3v-12a3 3 0 0 1 3 -3h12zm-2.293 6.293a1 1 0 0 0 -1.414 0l-2.293 2.292l-1.293 -1.292a1 1 0 0 0 -1.414 0l-3 3a1 1 0 0 0 0 1.414l.094 .083a1 1 0 0 0 1.32 -.083l2.293 -2.292l1.293 1.292l.094 .083a1 1 0 0 0 1.32 -.083l2.293 -2.292l1.293 1.292a1 1 0 0 0 1.414 -1.414l-2 -2z" />
  </g><text x="918" y="230" font-family="Microsoft YaHei, PingFang SC, Arial, sans-serif" font-size="18" font-weight="700" fill="#111827" text-anchor="start">Dijkstra</text><text text-anchor="start" fill="#475569" font-family="Microsoft YaHei, PingFang SC, Arial, sans-serif" font-size="14" font-weight="400" x="882" y="268">dijkstra_path</text><text text-anchor="start" fill="#475569" font-family="Microsoft YaHei, PingFang SC, Arial, sans-serif" font-size="14" font-weight="400" x="882" y="288">1 + trap_penalty</text><text text-anchor="start" fill="#475569" font-family="Microsoft YaHei, PingFang SC, Arial, sans-serif" font-size="14" font-weight="400" x="882" y="308">?????????</text></g><path fill="#DBEAFE" d="M142,510 H1138 A12,12 0 0 1 1150,522 V562 A12,12 0 0 1 1138,574 H142 A12,12 0 0 1 130,562 V522 A12,12 0 0 1 142,510 Z" /><text x="640" y="548" font-family="Microsoft YaHei, PingFang SC, Arial, sans-serif" font-size="20" font-weight="700" fill="#2563EB" text-anchor="middle">?????? list[Pos] ???ExplorationStrategy ?? path[1] ??????</text></g><g id="footer"><line x1="56" y1="684" x2="1224" y2="684" stroke="#CBD5E1" stroke-width="1" /><text x="56" y="704" font-family="Microsoft YaHei, PingFang SC, Arial, sans-serif" font-size="11" font-weight="400" fill="#94A3B8" text-anchor="start">AI ????????</text><text x="1224" y="704" font-family="Microsoft YaHei, PingFang SC, Arial, sans-serif" font-size="11" font-weight="400" fill="#94A3B8" text-anchor="end">Source: src/ai_player/pathfinding.py, strategies.py</text></g></svg>