<svg xmlns="http://www.w3.org/2000/svg" width="1280" height="720" viewBox="0 0 1280 720"><g id="background"><rect x="0" y="0" width="1280" height="720" rx="0" fill="#F8FAFC" /></g><g id="header"><path fill="#2563EB" d="M60,40 H60 A4,4 0 0 1 64,44 V76 A4,4 0 0 1 60,80 H60 A4,4 0 0 1 56,76 V44 A4,4 0 0 1 60,40 Z" /><text x="78" y="67" font-family="Microsoft YaHei, PingFang SC, Arial, sans-serif" font-size="30" font-weight="700" fill="#111827" text-anchor="start">3x3 ???????????????????</text><text x="78" y="96" font-family="Microsoft YaHei, PingFang SC, Arial, sans-serif" font-size="14" font-weight="400" fill="#475569" text-anchor="start">????? AI ????????????????????</text><text x="1210" y="62" font-family="Microsoft YaHei, PingFang SC, Arial, sans-serif" font-size="18" font-weight="700" fill="#94A3B8" text-anchor="end">09</text></g><g id="content"><path fill="#DCFCE7" stroke="#CBD5E1" stroke-width="1" d="M122,175 H198 A12,12 0 0 1 210,187 V263 A12,12 0 0 1 198,275 H122 A12,12 0 0 1 110,263 V187 A12,12 0 0 1 122,175 Z" /><text x="160" y="233" font-family="Microsoft YaHei, PingFang SC, Arial, sans-serif" font-size="18" font-weight="700" fill="#111827" text-anchor="middle">??</text><path fill="#E0F2FE" stroke="#CBD5E1" stroke-width="1" d="M237,175 H313 A12,12 0 0 1 325,187 V263 A12,12 0 0 1 313,275 H237 A12,12 0 0 1 225,263 V187 A12,12 0 0 1 237,175 Z" /><text x="275" y="233" font-family="Microsoft YaHei, PingFang SC, Arial, sans-serif" font-size="18" font-weight="700" fill="#111827" text-anchor="middle">??</text><path fill="#FFFFFF" stroke="#CBD5E1" stroke-width="1" d="M352,175 H428 A12,12 0 0 1 440,187 V263 A12,12 0 0 1 428,275 H352 A12,12 0 0 1 340,263 V187 A12,12 0 0 1 352,175 Z" /><text x="390" y="233" font-family="Microsoft YaHei, PingFang SC, Arial, sans-serif" font-size="18" font-weight="700" fill="#111827" text-anchor="middle">??</text><path fill="#FEE2E2" stroke="#CBD5E1" stroke-width="1" d="M122,290 H198 A12,12 0 0 1 210,302 V378 A12,12 0 0 1 198,390 H122 A12,12 0 0 1 110,378 V302 A12,12 0 0 1 122,290 Z" /><text x="160" y="348" font-family="Microsoft YaHei, PingFang SC, Arial, sans-serif" font-size="18" font-weight="700" fill="#111827" text-anchor="middle">??</text><path fill="#DBEAFE" stroke="#CBD5E1" stroke-width="1" d="M237,290 H313 A12,12 0 0 1 325,302 V378 A12,12 0 0 1 313,390 H237 A12,12 0 0 1 225,378 V302 A12,12 0 0 1 237,290 Z" /><text x="275" y="348" font-family="Microsoft YaHei, PingFang SC, Arial, sans-serif" font-size="18" font-weight="700" fill="#111827" text-anchor="middle">??</text><path fill="#FEF3C7" stroke="#CBD5E1" stroke-width="1" d="M352,290 H428 A12,12 0 0 1 440,302 V378 A12,12 0 0 1 428,390 H352 A12,12 0 0 1 340,378 V302 A12,12 0 0 1 352,290 Z" /><text x="390" y="348" font-family="Microsoft YaHei, PingFang SC, Arial, sans-serif" font-size="18" font-weight="700" fill="#111827" text-anchor="middle">???</text><path fill="#FFFFFF" stroke="#CBD5E1" stroke-width="1" d="M122,405 H198 A12,12 0 0 1 210,417 V493 A12,12 0 0 1 198,505 H122 A12,12 0 0 1 110,493 V417 A12,12 0 0 1 122,405 Z" /><text x="160" y="463" font-family="Microsoft YaHei, PingFang SC, Arial, sans-serif" font-size="18" font-weight="700" fill="#111827" text-anchor="middle">??</text><path fill="#FFFFFF" stroke="#CBD5E1" stroke-width="1" d="M237,405 H313 A12,12 0 0 1 325,417 V493 A12,12 0 0 1 313,505 H237 A12,12 0 0 1 225,493 V417 A12,12 0 0 1 237,405 Z" /><text x="275" y="463" font-family="Microsoft YaHei, PingFang SC, Arial, sans-serif" font-size="18" font-weight="700" fill="#111827" text-anchor="middle">??</text><path fill="#DCFCE7" stroke="#CBD5E1" stroke-width="1" d="M352,405 H428 A12,12 0 0 1 440,417 V493 A12,12 0 0 1 428,505 H352 A12,12 0 0 1 340,493 V417 A12,12 0 0 1 352,405 Z" /><text x="390" y="463" font-family="Microsoft YaHei, PingFang SC, Arial, sans-serif" font-size="18" font-weight="700" fill="#111827" text-anchor="middle">??</text><path fill="#FFFFFF" stroke="#CBD5E1" stroke-width="1" d="M532,165 H1118 A12,12 0 0 1 1130,177 V473 A12,12 0 0 1 1118,485 H532 A12,12 0 0 1 520,473 V177 A12,12 0 0 1 532,165 Z" /><text x="550" y="205" font-family="Consolas, Courier New, monospace" font-size="25" font-weight="800" fill="#111827" text-anchor="start">greedy_pick.decide()</text><text x="550" y="245" font-family="Consolas, Courier New, monospace" font-size="15" font-weight="400" fill="#475569" text-anchor="start">???maze.view_positions(position, radius=1)</text><text x="550" y="281" font-family="Consolas, Courier New, monospace" font-size="15" font-weight="400" fill="#475569" text-anchor="start">?????Candidate(position, COIN, COIN_VALUE, distance, ratio)</text><text x="550" y="317" font-family="Consolas, Courier New, monospace" font-size="15" font-weight="400" fill="#475569" text-anchor="start">????ratio = COIN_VALUE / (distance + 1)</text><text x="550" y="353" font-family="Consolas, Courier New, monospace" font-size="15" font-weight="400" fill="#475569" text-anchor="start">???-ratio, distance, manhattan(target, end), position</text><text x="550" y="389" font-family="Microsoft YaHei, PingFang SC, Arial, sans-serif" font-size="15" font-weight="400" fill="#475569" text-anchor="start">????? traps_to_avoid?????? excluded=True</text><text x="550" y="425" font-family="Microsoft YaHei, PingFang SC, Arial, sans-serif" font-size="15" font-weight="400" fill="#475569" text-anchor="start">???????fallback ? astar_path() ?????</text><g id="kpi-????????"><path fill="#FFFFFF" stroke="#CBD5E1" stroke-width="1" d="M560,520 H790 A10,10 0 0 1 800,530 V622 A10,10 0 0 1 790,632 H560 A10,10 0 0 1 550,622 V530 A10,10 0 0 1 560,520 Z" /><text x="570" y="550" font-family="Microsoft YaHei, PingFang SC, Arial, sans-serif" font-size="14" font-weight="600" fill="#475569" text-anchor="start">????????</text><text x="570" y="592" font-family="Microsoft YaHei, PingFang SC, Arial, sans-serif" font-size="34" font-weight="800" fill="#16A34A" text-anchor="start">33.33</text><text x="570" y="618" font-family="Microsoft YaHei, PingFang SC, Arial, sans-serif" font-size="12" font-weight="400" fill="#94A3B8" text-anchor="start">main.py --local-greedy</text></g><g id="kpi-????"><path fill="#FFFFFF" stroke="#CBD5E1" stroke-width="1" d="M845,520 H1075 A10,10 0 0 1 1085,530 V622 A10,10 0 0 1 1075,632 H845 A10,10 0 0 1 835,622 V530 A10,10 0 0 1 845,520 Z" /><text x="855" y="550" font-family="Microsoft YaHei, PingFang SC, Arial, sans-serif" font-size="14" font-weight="600" fill="#475569" text-anchor="start">????</text><text x="855" y="592" font-family="Microsoft YaHei, PingFang SC, Arial, sans-serif" font-size="34" font-weight="800" fill="#2563EB" text-anchor="start">3 x 3</text><text x="855" y="618" font-family="Microsoft YaHei, PingFang SC, Arial, sans-serif" font-size="12" font-weight="400" fill="#94A3B8" text-anchor="start">radius=1</text></g></g><g id="footer"><line x1="56" y1="684" x2="1224" y2="684" stroke="#CBD5E1" stroke-width="1" /><text x="56" y="704" font-family="Microsoft YaHei, PingFang SC, Arial, sans-serif" font-size="11" font-weight="400" fill="#94A3B8" text-anchor="start">AI ????????</text><text x="1224" y="704" font-family="Microsoft YaHei, PingFang SC, Arial, sans-serif" font-size="11" font-weight="400" fill="#94A3B8" text-anchor="end">Source: src/ai_player/greedy_pick.py, map/local_greedy_cases.json</text></g></svg>