<svg xmlns="http://www.w3.org/2000/svg" width="1280" height="720" viewBox="0 0 1280 720"><g id="background"><rect x="0" y="0" width="1280" height="720" rx="0" fill="#F8FAFC" /></g><g id="header"><path fill="#2563EB" d="M60,40 H60 A4,4 0 0 1 64,44 V76 A4,4 0 0 1 60,80 H60 A4,4 0 0 1 56,76 V44 A4,4 0 0 1 60,40 Z" /><text x="78" y="67" font-family="Microsoft YaHei, PingFang SC, Arial, sans-serif" font-size="30" font-weight="700" fill="#111827" text-anchor="start">Q-Learning ?????????????</text><text x="78" y="96" font-family="Microsoft YaHei, PingFang SC, Arial, sans-serif" font-size="14" font-weight="400" fill="#475569" text-anchor="start">????????????????? ExplorationStrategy ????? A* ?????</text><text x="1210" y="62" font-family="Microsoft YaHei, PingFang SC, Arial, sans-serif" font-size="18" font-weight="700" fill="#94A3B8" text-anchor="end">10</text></g><g id="content"><g id="card-75-190"><path fill="#FFFFFF" stroke="#CBD5E1" stroke-width="1" d="M85,190 H255 A10,10 0 0 1 265,200 V410 A10,10 0 0 1 255,420 H85 A10,10 0 0 1 75,410 V200 A10,10 0 0 1 85,190 Z" /><path fill="#2563EB" d="M78,190 H78 A3,3 0 0 1 81,193 V417 A3,3 0 0 1 78,420 H78 A3,3 0 0 1 75,417 V193 A3,3 0 0 1 78,190 Z" />
  <g transform="translate(0, 0)" fill="#000000">
    <path d="M13 2l.018 .001l.016 .001l.083 .005l.011 .002h.011l.038 .009l.052 .008l.016 .006l.011 .001l.029 .011l.052 .014l.019 .009l.015 .004l.028 .014l.04 .017l.021 .012l.022 .01l.023 .015l.031 .017l.034 .024l.018 .011l.013 .012l.024 .017l.038 .034l.022 .017l.008 .01l.014 .012l.036 .041l.026 .027l.006 .009c.12 .147 .196 .322 .218 .513l.001 .012l.002 .041l.004 .064v6h5a1 1 0 0 1 .868 1.497l-.06 .091l-8 11c-.568 .783 -1.808 .38 -1.808 -.588v-6h-5a1 1 0 0 1 -.868 -1.497l.06 -.091l8 -11l.01 -.013l.018 -.024l.033 -.038l.018 -.022l.009 -.008l.013 -.014l.04 -.036l.028 -.026l.008 -.006a1 1 0 0 1 .402 -.199l.011 -.001l.027 -.005l.074 -.013l.011 -.001l.041 -.002z" />
  </g><text x="133" y="230" font-family="Microsoft YaHei, PingFang SC, Arial, sans-serif" font-size="18" font-weight="700" fill="#111827" text-anchor="start">??</text><text text-anchor="start" fill="#475569" font-family="Microsoft YaHei, PingFang SC, Arial, sans-serif" font-size="14" font-weight="400" x="97" y="268">QLearningConfig</text><text text-anchor="start" fill="#475569" font-family="Microsoft YaHei, PingFang SC, Arial, sans-serif" font-size="14" font-weight="400" x="97" y="288">episodes=800</text><text text-anchor="start" fill="#475569" font-family="Microsoft YaHei, PingFang SC, Arial, sans-serif" font-size="14" font-weight="400" x="97" y="308">alpha=0.25</text><text text-anchor="start" fill="#475569" font-family="Microsoft YaHei, PingFang SC, Arial, sans-serif" font-size="14" font-weight="400" x="97" y="328">gamma=0.90</text></g><line x1="265" y1="305" x2="305" y2="305" stroke="#CBD5E1" stroke-width="3" stroke-dasharray="8,4" /><g id="card-305-190"><path fill="#FFFFFF" stroke="#CBD5E1" stroke-width="1" d="M315,190 H485 A10,10 0 0 1 495,200 V410 A10,10 0 0 1 485,420 H315 A10,10 0 0 1 305,410 V200 A10,10 0 0 1 315,190 Z" /><path fill="#16A34A" d="M308,190 H308 A3,3 0 0 1 311,193 V417 A3,3 0 0 1 308,420 H308 A3,3 0 0 1 305,417 V193 A3,3 0 0 1 308,190 Z" />
  <g transform="translate(0, 0)" fill="#000000">
    <path d="M13 2l.018 .001l.016 .001l.083 .005l.011 .002h.011l.038 .009l.052 .008l.016 .006l.011 .001l.029 .011l.052 .014l.019 .009l.015 .004l.028 .014l.04 .017l.021 .012l.022 .01l.023 .015l.031 .017l.034 .024l.018 .011l.013 .012l.024 .017l.038 .034l.022 .017l.008 .01l.014 .012l.036 .041l.026 .027l.006 .009c.12 .147 .196 .322 .218 .513l.001 .012l.002 .041l.004 .064v6h5a1 1 0 0 1 .868 1.497l-.06 .091l-8 11c-.568 .783 -1.808 .38 -1.808 -.588v-6h-5a1 1 0 0 1 -.868 -1.497l.06 -.091l8 -11l.01 -.013l.018 -.024l.033 -.038l.018 -.022l.009 -.008l.013 -.014l.04 -.036l.028 -.026l.008 -.006a1 1 0 0 1 .402 -.199l.011 -.001l.027 -.005l.074 -.013l.011 -.001l.041 -.002z" />
  </g><text x="363" y="230" font-family="Microsoft YaHei, PingFang SC, Arial, sans-serif" font-size="18" font-weight="700" fill="#111827" text-anchor="start">??</text><text text-anchor="start" fill="#475569" font-family="Microsoft YaHei, PingFang SC, Arial, sans-serif" font-size="14" font-weight="400" x="327" y="268">train_q_table</text><text text-anchor="start" fill="#475569" font-family="Microsoft YaHei, PingFang SC, Arial, sans-serif" font-size="14" font-weight="400" x="327" y="288">epsilon ????</text><text text-anchor="start" fill="#475569" font-family="Microsoft YaHei, PingFang SC, Arial, sans-serif" font-size="14" font-weight="400" x="327" y="308">?? QTable</text></g><line x1="495" y1="305" x2="535" y2="305" stroke="#CBD5E1" stroke-width="3" stroke-dasharray="8,4" /><g id="card-535-190"><path fill="#FFFFFF" stroke="#CBD5E1" stroke-width="1" d="M545,190 H715 A10,10 0 0 1 725,200 V410 A10,10 0 0 1 715,420 H545 A10,10 0 0 1 535,410 V200 A10,10 0 0 1 545,190 Z" /><path fill="#F59E0B" d="M538,190 H538 A3,3 0 0 1 541,193 V417 A3,3 0 0 1 538,420 H538 A3,3 0 0 1 535,417 V193 A3,3 0 0 1 538,190 Z" />
  <g transform="translate(0, 0)" fill="#000000">
    <path d="M17 3.34a10 10 0 1 1 -15 8.66l.005 -.324a10 10 0 0 1 14.995 -8.336m-6.293 5.953a1 1 0 0 0 -1.414 0l-2 2a1 1 0 0 0 0 1.414l2 2a1 1 0 0 0 1.414 0l.083 -.094a1 1 0 0 0 -.083 -1.32l-1.292 -1.293l1.292 -1.293a1 1 0 0 0 0 -1.414m4 0a1 1 0 0 0 -1.414 0l-.083 .094a1 1 0 0 0 .083 1.32l1.292 1.293l-1.292 1.293a1 1 0 0 0 1.414 1.414l2 -2a1 1 0 0 0 0 -1.414z" />
  </g><text x="593" y="230" font-family="Microsoft YaHei, PingFang SC, Arial, sans-serif" font-size="18" font-weight="700" fill="#111827" text-anchor="start">??</text><text text-anchor="start" fill="#475569" font-family="Microsoft YaHei, PingFang SC, Arial, sans-serif" font-size="14" font-weight="400" x="557" y="268">_step_reward</text><text text-anchor="start" fill="#475569" font-family="Microsoft YaHei, PingFang SC, Arial, sans-serif" font-size="14" font-weight="400" x="557" y="288">?? +200</text><text text-anchor="start" fill="#475569" font-family="Microsoft YaHei, PingFang SC, Arial, sans-serif" font-size="14" font-weight="400" x="557" y="308">?? +50</text><text text-anchor="start" fill="#475569" font-family="Microsoft YaHei, PingFang SC, Arial, sans-serif" font-size="14" font-weight="400" x="557" y="328">?? -30</text></g><line x1="725" y1="305" x2="765" y2="305" stroke="#CBD5E1" stroke-width="3" stroke-dasharray="8,4" /><g id="card-765-190"><path fill="#FFFFFF" stroke="#CBD5E1" stroke-width="1" d="M775,190 H945 A10,10 0 0 1 955,200 V410 A10,10 0 0 1 945,420 H775 A10,10 0 0 1 765,410 V200 A10,10 0 0 1 775,190 Z" /><path fill="#DC2626" d="M768,190 H768 A3,3 0 0 1 771,193 V417 A3,3 0 0 1 768,420 H768 A3,3 0 0 1 765,417 V193 A3,3 0 0 1 768,190 Z" />
  <g transform="translate(0, 0)" fill="#000000">
    <path d="M17 3.34a10 10 0 1 1 -15 8.66l.005 -.324a10 10 0 0 1 14.995 -8.336m-6.293 5.953a1 1 0 0 0 -1.414 0l-2 2a1 1 0 0 0 0 1.414l2 2a1 1 0 0 0 1.414 0l.083 -.094a1 1 0 0 0 -.083 -1.32l-1.292 -1.293l1.292 -1.293a1 1 0 0 0 0 -1.414m4 0a1 1 0 0 0 -1.414 0l-.083 .094a1 1 0 0 0 .083 1.32l1.292 1.293l-1.292 1.293a1 1 0 0 0 1.414 1.414l2 -2a1 1 0 0 0 0 -1.414z" />
  </g><text x="823" y="230" font-family="Microsoft YaHei, PingFang SC, Arial, sans-serif" font-size="18" font-weight="700" fill="#111827" text-anchor="start">??</text><text text-anchor="start" fill="#475569" font-family="Microsoft YaHei, PingFang SC, Arial, sans-serif" font-size="14" font-weight="400" x="787" y="268">QLearningPolicyStrategy</text><text text-anchor="start" fill="#475569" font-family="Microsoft YaHei, PingFang SC, Arial, sans-serif" font-size="14" font-weight="400" x="787" y="288">? Q ????</text><text text-anchor="start" fill="#475569" font-family="Microsoft YaHei, PingFang SC, Arial, sans-serif" font-size="14" font-weight="400" x="787" y="308">?????? A*</text></g><line x1="955" y1="305" x2="995" y2="305" stroke="#CBD5E1" stroke-width="3" stroke-dasharray="8,4" /><g id="card-995-190"><path fill="#FFFFFF" stroke="#CBD5E1" stroke-width="1" d="M1005,190 H1175 A10,10 0 0 1 1185,200 V410 A10,10 0 0 1 1175,420 H1005 A10,10 0 0 1 995,410 V200 A10,10 0 0 1 1005,190 Z" /><path fill="#2563EB" d="M998,190 H998 A3,3 0 0 1 1001,193 V417 A3,3 0 0 1 998,420 H998 A3,3 0 0 1 995,417 V193 A3,3 0 0 1 998,190 Z" />
  <g transform="translate(0, 0)" fill="#000000">
    <path d="M17 3.34a10 10 0 1 1 -15 8.66l.005 -.324a10 10 0 0 1 14.995 -8.336m-6.293 5.953a1 1 0 0 0 -1.414 0l-2 2a1 1 0 0 0 0 1.414l2 2a1 1 0 0 0 1.414 0l.083 -.094a1 1 0 0 0 -.083 -1.32l-1.292 -1.293l1.292 -1.293a1 1 0 0 0 0 -1.414m4 0a1 1 0 0 0 -1.414 0l-.083 .094a1 1 0 0 0 .083 1.32l1.292 1.293l-1.292 1.293a1 1 0 0 0 1.414 1.414l2 -2a1 1 0 0 0 0 -1.414z" />
  </g><text x="1053" y="230" font-family="Microsoft YaHei, PingFang SC, Arial, sans-serif" font-size="18" font-weight="700" fill="#111827" text-anchor="start">??</text><text text-anchor="start" fill="#475569" font-family="Microsoft YaHei, PingFang SC, Arial, sans-serif" font-size="14" font-weight="400" x="1017" y="268">STRATEGY_FACTORIES</text><text text-anchor="start" fill="#475569" font-family="Microsoft YaHei, PingFang SC, Arial, sans-serif" font-size="14" font-weight="400" x="1017" y="288">GUI ? CLI</text><text text-anchor="start" fill="#475569" font-family="Microsoft YaHei, PingFang SC, Arial, sans-serif" font-size="14" font-weight="400" x="1017" y="308">?????</text></g><path fill="#DCFCE7" d="M117,515 H1143 A12,12 0 0 1 1155,527 V565 A12,12 0 0 1 1143,577 H117 A12,12 0 0 1 105,565 V527 A12,12 0 0 1 117,515 Z" /><text x="630" y="553" font-family="Microsoft YaHei, PingFang SC, Arial, sans-serif" font-size="18" font-weight="700" fill="#16A34A" text-anchor="middle">????? Q-Learning ???? ExplorationStrategy??? GUI ????--strategy Q-Learning ???????????</text></g><g id="footer"><line x1="56" y1="684" x2="1224" y2="684" stroke="#CBD5E1" stroke-width="1" /><text x="56" y="704" font-family="Microsoft YaHei, PingFang SC, Arial, sans-serif" font-size="11" font-weight="400" fill="#94A3B8" text-anchor="start">AI ????????</text><text x="1224" y="704" font-family="Microsoft YaHei, PingFang SC, Arial, sans-serif" font-size="11" font-weight="400" fill="#94A3B8" text-anchor="end">Source: src/ai_player/rl_agent.py, strategies.py</text></g></svg>