<svg xmlns="http://www.w3.org/2000/svg" width="1280" height="720" viewBox="0 0 1280 720"><g id="background"><rect x="0" y="0" width="1280" height="720" rx="0" fill="#F8FAFC" /></g><g id="header"><path fill="#2563EB" d="M60,40 H60 A4,4 0 0 1 64,44 V76 A4,4 0 0 1 60,80 H60 A4,4 0 0 1 56,76 V44 A4,4 0 0 1 60,40 Z" /><text x="78" y="67" font-family="Microsoft YaHei, PingFang SC, Arial, sans-serif" font-size="30" font-weight="700" fill="#111827" text-anchor="start">ExplorationRunner ??????????????</text><text x="78" y="96" font-family="Microsoft YaHei, PingFang SC, Arial, sans-serif" font-size="14" font-weight="400" fill="#475569" text-anchor="start">????????????????BOSS ??????????????</text><text x="1210" y="62" font-family="Microsoft YaHei, PingFang SC, Arial, sans-serif" font-size="18" font-weight="700" fill="#94A3B8" text-anchor="end">12</text></g><g id="content"><g id="kpi-????"><path fill="#FFFFFF" stroke="#CBD5E1" stroke-width="1" d="M90,155 H330 A10,10 0 0 1 340,165 V257 A10,10 0 0 1 330,267 H90 A10,10 0 0 1 80,257 V165 A10,10 0 0 1 90,155 Z" /><text x="100" y="185" font-family="Microsoft YaHei, PingFang SC, Arial, sans-serif" font-size="14" font-weight="600" fill="#475569" text-anchor="start">????</text><text x="100" y="227" font-family="Microsoft YaHei, PingFang SC, Arial, sans-serif" font-size="34" font-weight="800" fill="#2563EB" text-anchor="start">32</text><text x="100" y="253" font-family="Microsoft YaHei, PingFang SC, Arial, sans-serif" font-size="12" font-weight="400" fill="#94A3B8" text-anchor="start">maze_steps</text></g><g id="kpi-BOSS-??"><path fill="#FFFFFF" stroke="#CBD5E1" stroke-width="1" d="M385,155 H625 A10,10 0 0 1 635,165 V257 A10,10 0 0 1 625,267 H385 A10,10 0 0 1 375,257 V165 A10,10 0 0 1 385,155 Z" /><text x="395" y="185" font-family="Microsoft YaHei, PingFang SC, Arial, sans-serif" font-size="14" font-weight="600" fill="#475569" text-anchor="start">BOSS ??</text><text x="395" y="227" font-family="Microsoft YaHei, PingFang SC, Arial, sans-serif" font-size="34" font-weight="800" fill="#F59E0B" text-anchor="start">12</text><text x="395" y="253" font-family="Microsoft YaHei, PingFang SC, Arial, sans-serif" font-size="12" font-weight="400" fill="#94A3B8" text-anchor="start">boss_rounds</text></g><g id="kpi-????"><path fill="#FFFFFF" stroke="#CBD5E1" stroke-width="1" d="M680,155 H920 A10,10 0 0 1 930,165 V257 A10,10 0 0 1 920,267 H680 A10,10 0 0 1 670,257 V165 A10,10 0 0 1 680,155 Z" /><text x="690" y="185" font-family="Microsoft YaHei, PingFang SC, Arial, sans-serif" font-size="14" font-weight="600" fill="#475569" text-anchor="start">????</text><text x="690" y="227" font-family="Microsoft YaHei, PingFang SC, Arial, sans-serif" font-size="34" font-weight="800" fill="#16A34A" text-anchor="start">1</text><text x="690" y="253" font-family="Microsoft YaHei, PingFang SC, Arial, sans-serif" font-size="12" font-weight="400" fill="#94A3B8" text-anchor="start">coin_balance</text></g><g id="kpi-????"><path fill="#FFFFFF" stroke="#CBD5E1" stroke-width="1" d="M975,155 H1215 A10,10 0 0 1 1225,165 V257 A10,10 0 0 1 1215,267 H975 A10,10 0 0 1 965,257 V165 A10,10 0 0 1 975,155 Z" /><text x="985" y="185" font-family="Microsoft YaHei, PingFang SC, Arial, sans-serif" font-size="14" font-weight="600" fill="#475569" text-anchor="start">????</text><text x="985" y="227" font-family="Microsoft YaHei, PingFang SC, Arial, sans-serif" font-size="34" font-weight="800" fill="#DC2626" text-anchor="start">Layer2</text><text x="985" y="253" font-family="Microsoft YaHei, PingFang SC, Arial, sans-serif" font-size="12" font-weight="400" fill="#94A3B8" text-anchor="start">Greedy+Layer2</text></g><path fill="#FFFFFF" stroke="#CBD5E1" stroke-width="1" d="M130,360 H330 A10,10 0 0 1 340,370 V444 A10,10 0 0 1 330,454 H130 A10,10 0 0 1 120,444 V370 A10,10 0 0 1 130,360 Z" /><text x="230" y="393" font-family="Consolas, Courier New, monospace" font-size="18" font-weight="700" fill="#2563EB" text-anchor="middle">run()</text><text x="230" y="425" font-family="Microsoft YaHei, PingFang SC, Arial, sans-serif" font-size="15" font-weight="600" fill="#475569" text-anchor="middle">???</text><line x1="340" y1="405" x2="405" y2="405" stroke="#CBD5E1" stroke-width="3" stroke-dasharray="8,4" /><path fill="#FFFFFF" stroke="#CBD5E1" stroke-width="1" d="M415,360 H615 A10,10 0 0 1 625,370 V444 A10,10 0 0 1 615,454 H415 A10,10 0 0 1 405,444 V370 A10,10 0 0 1 415,360 Z" /><text x="515" y="393" font-family="Consolas, Courier New, monospace" font-size="18" font-weight="700" fill="#2563EB" text-anchor="middle">_decide_with_degradation()</text><text x="515" y="425" font-family="Microsoft YaHei, PingFang SC, Arial, sans-serif" font-size="15" font-weight="600" fill="#475569" text-anchor="middle">???????</text><line x1="625" y1="405" x2="690" y2="405" stroke="#CBD5E1" stroke-width="3" stroke-dasharray="8,4" /><path fill="#FFFFFF" stroke="#CBD5E1" stroke-width="1" d="M700,360 H900 A10,10 0 0 1 910,370 V444 A10,10 0 0 1 900,454 H700 A10,10 0 0 1 690,444 V370 A10,10 0 0 1 700,360 Z" /><text x="800" y="393" font-family="Consolas, Courier New, monospace" font-size="18" font-weight="700" fill="#2563EB" text-anchor="middle">_apply_decision()</text><text x="800" y="425" font-family="Microsoft YaHei, PingFang SC, Arial, sans-serif" font-size="15" font-weight="600" fill="#475569" text-anchor="middle">???????</text><line x1="910" y1="405" x2="975" y2="405" stroke="#CBD5E1" stroke-width="3" stroke-dasharray="8,4" /><path fill="#FFFFFF" stroke="#CBD5E1" stroke-width="1" d="M985,360 H1185 A10,10 0 0 1 1195,370 V444 A10,10 0 0 1 1185,454 H985 A10,10 0 0 1 975,444 V370 A10,10 0 0 1 985,360 Z" /><text x="1085" y="393" font-family="Consolas, Courier New, monospace" font-size="18" font-weight="700" fill="#2563EB" text-anchor="middle">_snapshot()</text><text x="1085" y="425" font-family="Microsoft YaHei, PingFang SC, Arial, sans-serif" font-size="15" font-weight="600" fill="#475569" text-anchor="middle">?? GUI ??</text><text x="120" y="520" font-family="Microsoft YaHei, PingFang SC, Arial, sans-serif" font-size="17" font-weight="400" fill="#475569" text-anchor="start">Layer 1 ??????????????????? Layer 2 ?? A*???????? BOSS ??????? Layer 3?</text></g><g id="footer"><line x1="56" y1="684" x2="1224" y2="684" stroke="#CBD5E1" stroke-width="1" /><text x="56" y="704" font-family="Microsoft YaHei, PingFang SC, Arial, sans-serif" font-size="11" font-weight="400" fill="#94A3B8" text-anchor="start">AI ????????</text><text x="1224" y="704" font-family="Microsoft YaHei, PingFang SC, Arial, sans-serif" font-size="11" font-weight="400" fill="#94A3B8" text-anchor="end">Source: src/ai_player/exploration.py, main.py --compare</text></g></svg>