<svg xmlns="http://www.w3.org/2000/svg" width="1280" height="720" viewBox="0 0 1280 720"><g id="background"><rect x="0" y="0" width="1280" height="720" rx="0" fill="#F8FAFC" /></g><g id="header"><path fill="#2563EB" d="M60,40 H60 A4,4 0 0 1 64,44 V76 A4,4 0 0 1 60,80 H60 A4,4 0 0 1 56,76 V44 A4,4 0 0 1 60,40 Z" /><text x="78" y="67" font-family="Microsoft YaHei, PingFang SC, Arial, sans-serif" font-size="30" font-weight="700" fill="#111827" text-anchor="start">?????????????????????/?????</text><text x="78" y="96" font-family="Microsoft YaHei, PingFang SC, Arial, sans-serif" font-size="14" font-weight="400" fill="#475569" text-anchor="start">???????????????????????????????????????</text><text x="1210" y="62" font-family="Microsoft YaHei, PingFang SC, Arial, sans-serif" font-size="18" font-weight="700" fill="#94A3B8" text-anchor="end">13</text></g><g id="content"><path fill="#FFFFFF" stroke="#CBD5E1" stroke-width="1" d="M90,150 H400 A10,10 0 0 1 410,160 V305 A10,10 0 0 1 400,315 H90 A10,10 0 0 1 80,305 V160 A10,10 0 0 1 90,150 Z" /><text x="98" y="180" font-family="Microsoft YaHei, PingFang SC, Arial, sans-serif" font-size="17" font-weight="700" fill="#111827" text-anchor="start">????</text><path fill="#16A34A" d="M108,215 H132 A3,3 0 0 1 135,218 V282 A3,3 0 0 1 132,285 H108 A3,3 0 0 1 105,282 V218 A3,3 0 0 1 108,215 Z" /><text x="120" y="303" font-family="Microsoft YaHei, PingFang SC, Arial, sans-serif" font-size="10" font-weight="600" fill="#475569" text-anchor="middle">Gre</text><path fill="#16A34A" d="M156,215 H180 A3,3 0 0 1 183,218 V282 A3,3 0 0 1 180,285 H156 A3,3 0 0 1 153,282 V218 A3,3 0 0 1 156,215 Z" /><text x="168" y="303" font-family="Microsoft YaHei, PingFang SC, Arial, sans-serif" font-size="10" font-weight="600" fill="#475569" text-anchor="middle">A*</text><path fill="#16A34A" d="M204,215 H228 A3,3 0 0 1 231,218 V282 A3,3 0 0 1 228,285 H204 A3,3 0 0 1 201,282 V218 A3,3 0 0 1 204,215 Z" /><text x="216" y="303" font-family="Microsoft YaHei, PingFang SC, Arial, sans-serif" font-size="10" font-weight="600" fill="#475569" text-anchor="middle">BFS</text><path fill="#16A34A" d="M252,215 H276 A3,3 0 0 1 279,218 V282 A3,3 0 0 1 276,285 H252 A3,3 0 0 1 249,282 V218 A3,3 0 0 1 252,215 Z" /><text x="264" y="303" font-family="Microsoft YaHei, PingFang SC, Arial, sans-serif" font-size="10" font-weight="600" fill="#475569" text-anchor="middle">Dij</text><path fill="#16A34A" d="M300,215 H324 A3,3 0 0 1 327,218 V282 A3,3 0 0 1 324,285 H300 A3,3 0 0 1 297,282 V218 A3,3 0 0 1 300,215 Z" /><text x="312" y="303" font-family="Microsoft YaHei, PingFang SC, Arial, sans-serif" font-size="10" font-weight="600" fill="#475569" text-anchor="middle">Ada</text><path fill="#16A34A" d="M348,215 H372 A3,3 0 0 1 375,218 V282 A3,3 0 0 1 372,285 H348 A3,3 0 0 1 345,282 V218 A3,3 0 0 1 348,215 Z" /><text x="360" y="303" font-family="Microsoft YaHei, PingFang SC, Arial, sans-serif" font-size="10" font-weight="600" fill="#475569" text-anchor="middle">Q-L</text><text x="380" y="184" font-family="Microsoft YaHei, PingFang SC, Arial, sans-serif" font-size="24" font-weight="800" fill="#16A34A" text-anchor="end">20</text><path fill="#FFFFFF" stroke="#CBD5E1" stroke-width="1" d="M470,150 H780 A10,10 0 0 1 790,160 V305 A10,10 0 0 1 780,315 H470 A10,10 0 0 1 460,305 V160 A10,10 0 0 1 470,150 Z" /><text x="478" y="180" font-family="Microsoft YaHei, PingFang SC, Arial, sans-serif" font-size="17" font-weight="700" fill="#111827" text-anchor="start">???</text><path fill="#2563EB" d="M488,215 H512 A3,3 0 0 1 515,218 V282 A3,3 0 0 1 512,285 H488 A3,3 0 0 1 485,282 V218 A3,3 0 0 1 488,215 Z" /><text x="500" y="303" font-family="Microsoft YaHei, PingFang SC, Arial, sans-serif" font-size="10" font-weight="600" fill="#475569" text-anchor="middle">Gre</text><path fill="#2563EB" d="M536,215 H560 A3,3 0 0 1 563,218 V282 A3,3 0 0 1 560,285 H536 A3,3 0 0 1 533,282 V218 A3,3 0 0 1 536,215 Z" /><text x="548" y="303" font-family="Microsoft YaHei, PingFang SC, Arial, sans-serif" font-size="10" font-weight="600" fill="#475569" text-anchor="middle">A*</text><path fill="#2563EB" d="M584,215 H608 A3,3 0 0 1 611,218 V282 A3,3 0 0 1 608,285 H584 A3,3 0 0 1 581,282 V218 A3,3 0 0 1 584,215 Z" /><text x="596" y="303" font-family="Microsoft YaHei, PingFang SC, Arial, sans-serif" font-size="10" font-weight="600" fill="#475569" text-anchor="middle">BFS</text><path fill="#2563EB" d="M632,215 H656 A3,3 0 0 1 659,218 V282 A3,3 0 0 1 656,285 H632 A3,3 0 0 1 629,282 V218 A3,3 0 0 1 632,215 Z" /><text x="644" y="303" font-family="Microsoft YaHei, PingFang SC, Arial, sans-serif" font-size="10" font-weight="600" fill="#475569" text-anchor="middle">Dij</text><path fill="#2563EB" d="M680,215 H704 A3,3 0 0 1 707,218 V282 A3,3 0 0 1 704,285 H680 A3,3 0 0 1 677,282 V218 A3,3 0 0 1 680,215 Z" /><text x="692" y="303" font-family="Microsoft YaHei, PingFang SC, Arial, sans-serif" font-size="10" font-weight="600" fill="#475569" text-anchor="middle">Ada</text><path fill="#2563EB" d="M728,215 H752 A3,3 0 0 1 755,218 V282 A3,3 0 0 1 752,285 H728 A3,3 0 0 1 725,282 V218 A3,3 0 0 1 728,215 Z" /><text x="740" y="303" font-family="Microsoft YaHei, PingFang SC, Arial, sans-serif" font-size="10" font-weight="600" fill="#475569" text-anchor="middle">Q-L</text><text x="760" y="184" font-family="Microsoft YaHei, PingFang SC, Arial, sans-serif" font-size="24" font-weight="800" fill="#2563EB" text-anchor="end">44</text><path fill="#FFFFFF" stroke="#CBD5E1" stroke-width="1" d="M850,150 H1160 A10,10 0 0 1 1170,160 V305 A10,10 0 0 1 1160,315 H850 A10,10 0 0 1 840,305 V160 A10,10 0 0 1 850,150 Z" /><text x="858" y="180" font-family="Microsoft YaHei, PingFang SC, Arial, sans-serif" font-size="17" font-weight="700" fill="#111827" text-anchor="start">??/???</text><path fill="#F59E0B" d="M868,261 H892 A3,3 0 0 1 895,264 V282 A3,3 0 0 1 892,285 H868 A3,3 0 0 1 865,282 V264 A3,3 0 0 1 868,261 Z" /><text x="880" y="303" font-family="Microsoft YaHei, PingFang SC, Arial, sans-serif" font-size="10" font-weight="600" fill="#475569" text-anchor="middle">Gre</text><path fill="#F59E0B" d="M916,261 H940 A3,3 0 0 1 943,264 V282 A3,3 0 0 1 940,285 H916 A3,3 0 0 1 913,282 V264 A3,3 0 0 1 916,261 Z" /><text x="928" y="303" font-family="Microsoft YaHei, PingFang SC, Arial, sans-serif" font-size="10" font-weight="600" fill="#475569" text-anchor="middle">A*</text><path fill="#F59E0B" d="M964,261 H988 A3,3 0 0 1 991,264 V282 A3,3 0 0 1 988,285 H964 A3,3 0 0 1 961,282 V264 A3,3 0 0 1 964,261 Z" /><text x="976" y="303" font-family="Microsoft YaHei, PingFang SC, Arial, sans-serif" font-size="10" font-weight="600" fill="#475569" text-anchor="middle">BFS</text><path fill="#F59E0B" d="M1012,261 H1036 A3,3 0 0 1 1039,264 V282 A3,3 0 0 1 1036,285 H1012 A3,3 0 0 1 1009,282 V264 A3,3 0 0 1 1012,261 Z" /><text x="1024" y="303" font-family="Microsoft YaHei, PingFang SC, Arial, sans-serif" font-size="10" font-weight="600" fill="#475569" text-anchor="middle">Dij</text><path fill="#F59E0B" d="M1060,261 H1084 A3,3 0 0 1 1087,264 V282 A3,3 0 0 1 1084,285 H1060 A3,3 0 0 1 1057,282 V264 A3,3 0 0 1 1060,261 Z" /><text x="1072" y="303" font-family="Microsoft YaHei, PingFang SC, Arial, sans-serif" font-size="10" font-weight="600" fill="#475569" text-anchor="middle">Ada</text><path fill="#F59E0B" d="M1108,261 H1132 A3,3 0 0 1 1135,264 V282 A3,3 0 0 1 1132,285 H1108 A3,3 0 0 1 1105,282 V264 A3,3 0 0 1 1108,261 Z" /><text x="1120" y="303" font-family="Microsoft YaHei, PingFang SC, Arial, sans-serif" font-size="10" font-weight="600" fill="#475569" text-anchor="middle">Q-L</text><text x="1140" y="184" font-family="Microsoft YaHei, PingFang SC, Arial, sans-serif" font-size="24" font-weight="800" fill="#F59E0B" text-anchor="end">0.45</text><path fill="#FFFFFF" stroke="#CBD5E1" stroke-width="1" d="M90,355 H400 A10,10 0 0 1 410,365 V510 A10,10 0 0 1 400,520 H90 A10,10 0 0 1 80,510 V365 A10,10 0 0 1 90,355 Z" /><text x="98" y="385" font-family="Microsoft YaHei, PingFang SC, Arial, sans-serif" font-size="17" font-weight="700" fill="#111827" text-anchor="start">???</text><path fill="#16A34A" d="M108,435 H132 A3,3 0 0 1 135,438 V487 A3,3 0 0 1 132,490 H108 A3,3 0 0 1 105,487 V438 A3,3 0 0 1 108,435 Z" /><text x="120" y="508" font-family="Microsoft YaHei, PingFang SC, Arial, sans-serif" font-size="10" font-weight="600" fill="#475569" text-anchor="middle">Gre</text><path fill="#16A34A" d="M156,435 H180 A3,3 0 0 1 183,438 V487 A3,3 0 0 1 180,490 H156 A3,3 0 0 1 153,487 V438 A3,3 0 0 1 156,435 Z" /><text x="168" y="508" font-family="Microsoft YaHei, PingFang SC, Arial, sans-serif" font-size="10" font-weight="600" fill="#475569" text-anchor="middle">A*</text><path fill="#16A34A" d="M204,435 H228 A3,3 0 0 1 231,438 V487 A3,3 0 0 1 228,490 H204 A3,3 0 0 1 201,487 V438 A3,3 0 0 1 204,435 Z" /><text x="216" y="508" font-family="Microsoft YaHei, PingFang SC, Arial, sans-serif" font-size="10" font-weight="600" fill="#475569" text-anchor="middle">BFS</text><path fill="#16A34A" d="M252,435 H276 A3,3 0 0 1 279,438 V487 A3,3 0 0 1 276,490 H252 A3,3 0 0 1 249,487 V438 A3,3 0 0 1 252,435 Z" /><text x="264" y="508" font-family="Microsoft YaHei, PingFang SC, Arial, sans-serif" font-size="10" font-weight="600" fill="#475569" text-anchor="middle">Dij</text><path fill="#16A34A" d="M300,435 H324 A3,3 0 0 1 327,438 V487 A3,3 0 0 1 324,490 H300 A3,3 0 0 1 297,487 V438 A3,3 0 0 1 300,435 Z" /><text x="312" y="508" font-family="Microsoft YaHei, PingFang SC, Arial, sans-serif" font-size="10" font-weight="600" fill="#475569" text-anchor="middle">Ada</text><path fill="#16A34A" d="M348,435 H372 A3,3 0 0 1 375,438 V487 A3,3 0 0 1 372,490 H348 A3,3 0 0 1 345,487 V438 A3,3 0 0 1 348,435 Z" /><text x="360" y="508" font-family="Microsoft YaHei, PingFang SC, Arial, sans-serif" font-size="10" font-weight="600" fill="#475569" text-anchor="middle">Q-L</text><text x="380" y="389" font-family="Microsoft YaHei, PingFang SC, Arial, sans-serif" font-size="24" font-weight="800" fill="#16A34A" text-anchor="end">1</text><path fill="#FFFFFF" stroke="#CBD5E1" stroke-width="1" d="M470,355 H780 A10,10 0 0 1 790,365 V510 A10,10 0 0 1 780,520 H470 A10,10 0 0 1 460,510 V365 A10,10 0 0 1 470,355 Z" /><text x="478" y="385" font-family="Microsoft YaHei, PingFang SC, Arial, sans-serif" font-size="17" font-weight="700" fill="#111827" text-anchor="start">???</text><path fill="#DC2626" d="M488,435 H512 A3,3 0 0 1 515,438 V487 A3,3 0 0 1 512,490 H488 A3,3 0 0 1 485,487 V438 A3,3 0 0 1 488,435 Z" /><text x="500" y="508" font-family="Microsoft YaHei, PingFang SC, Arial, sans-serif" font-size="10" font-weight="600" fill="#475569" text-anchor="middle">Gre</text><path fill="#DC2626" d="M536,435 H560 A3,3 0 0 1 563,438 V487 A3,3 0 0 1 560,490 H536 A3,3 0 0 1 533,487 V438 A3,3 0 0 1 536,435 Z" /><text x="548" y="508" font-family="Microsoft YaHei, PingFang SC, Arial, sans-serif" font-size="10" font-weight="600" fill="#475569" text-anchor="middle">A*</text><path fill="#DC2626" d="M584,435 H608 A3,3 0 0 1 611,438 V487 A3,3 0 0 1 608,490 H584 A3,3 0 0 1 581,487 V438 A3,3 0 0 1 584,435 Z" /><text x="596" y="508" font-family="Microsoft YaHei, PingFang SC, Arial, sans-serif" font-size="10" font-weight="600" fill="#475569" text-anchor="middle">BFS</text><path fill="#DC2626" d="M632,435 H656 A3,3 0 0 1 659,438 V487 A3,3 0 0 1 656,490 H632 A3,3 0 0 1 629,487 V438 A3,3 0 0 1 632,435 Z" /><text x="644" y="508" font-family="Microsoft YaHei, PingFang SC, Arial, sans-serif" font-size="10" font-weight="600" fill="#475569" text-anchor="middle">Dij</text><path fill="#DC2626" d="M680,435 H704 A3,3 0 0 1 707,438 V487 A3,3 0 0 1 704,490 H680 A3,3 0 0 1 677,487 V438 A3,3 0 0 1 680,435 Z" /><text x="692" y="508" font-family="Microsoft YaHei, PingFang SC, Arial, sans-serif" font-size="10" font-weight="600" fill="#475569" text-anchor="middle">Ada</text><path fill="#DC2626" d="M728,435 H752 A3,3 0 0 1 755,438 V487 A3,3 0 0 1 752,490 H728 A3,3 0 0 1 725,487 V438 A3,3 0 0 1 728,435 Z" /><text x="740" y="508" font-family="Microsoft YaHei, PingFang SC, Arial, sans-serif" font-size="10" font-weight="600" fill="#475569" text-anchor="middle">Q-L</text><text x="760" y="389" font-family="Microsoft YaHei, PingFang SC, Arial, sans-serif" font-size="24" font-weight="800" fill="#DC2626" text-anchor="end">1</text><path fill="#FFFFFF" stroke="#CBD5E1" stroke-width="1" d="M850,355 H1160 A10,10 0 0 1 1170,365 V510 A10,10 0 0 1 1160,520 H850 A10,10 0 0 1 840,510 V365 A10,10 0 0 1 850,355 Z" /><text x="858" y="385" font-family="Microsoft YaHei, PingFang SC, Arial, sans-serif" font-size="17" font-weight="700" fill="#111827" text-anchor="start">BOSS ??</text><path fill="#F59E0B" d="M868,420 H892 A3,3 0 0 1 895,423 V487 A3,3 0 0 1 892,490 H868 A3,3 0 0 1 865,487 V423 A3,3 0 0 1 868,420 Z" /><text x="880" y="508" font-family="Microsoft YaHei, PingFang SC, Arial, sans-serif" font-size="10" font-weight="600" fill="#475569" text-anchor="middle">Gre</text><path fill="#F59E0B" d="M916,420 H940 A3,3 0 0 1 943,423 V487 A3,3 0 0 1 940,490 H916 A3,3 0 0 1 913,487 V423 A3,3 0 0 1 916,420 Z" /><text x="928" y="508" font-family="Microsoft YaHei, PingFang SC, Arial, sans-serif" font-size="10" font-weight="600" fill="#475569" text-anchor="middle">A*</text><path fill="#F59E0B" d="M964,420 H988 A3,3 0 0 1 991,423 V487 A3,3 0 0 1 988,490 H964 A3,3 0 0 1 961,487 V423 A3,3 0 0 1 964,420 Z" /><text x="976" y="508" font-family="Microsoft YaHei, PingFang SC, Arial, sans-serif" font-size="10" font-weight="600" fill="#475569" text-anchor="middle">BFS</text><path fill="#F59E0B" d="M1012,420 H1036 A3,3 0 0 1 1039,423 V487 A3,3 0 0 1 1036,490 H1012 A3,3 0 0 1 1009,487 V423 A3,3 0 0 1 1012,420 Z" /><text x="1024" y="508" font-family="Microsoft YaHei, PingFang SC, Arial, sans-serif" font-size="10" font-weight="600" fill="#475569" text-anchor="middle">Dij</text><path fill="#F59E0B" d="M1060,420 H1084 A3,3 0 0 1 1087,423 V487 A3,3 0 0 1 1084,490 H1060 A3,3 0 0 1 1057,487 V423 A3,3 0 0 1 1060,420 Z" /><text x="1072" y="508" font-family="Microsoft YaHei, PingFang SC, Arial, sans-serif" font-size="10" font-weight="600" fill="#475569" text-anchor="middle">Ada</text><path fill="#F59E0B" d="M1108,420 H1132 A3,3 0 0 1 1135,423 V487 A3,3 0 0 1 1132,490 H1108 A3,3 0 0 1 1105,487 V423 A3,3 0 0 1 1108,420 Z" /><text x="1120" y="508" font-family="Microsoft YaHei, PingFang SC, Arial, sans-serif" font-size="10" font-weight="600" fill="#475569" text-anchor="middle">Q-L</text><text x="1140" y="389" font-family="Microsoft YaHei, PingFang SC, Arial, sans-serif" font-size="24" font-weight="800" fill="#F59E0B" text-anchor="end">12</text><path fill="#DBEAFE" d="M117,575 H1133 A12,12 0 0 1 1145,587 V615 A12,12 0 0 1 1133,627 H117 A12,12 0 0 1 105,615 V587 A12,12 0 0 1 117,575 Z" /><text x="625" y="608" font-family="Microsoft YaHei, PingFang SC, Arial, sans-serif" font-size="18" font-weight="800" fill="#2563EB" text-anchor="middle">????????????????????????????/????????</text></g><g id="footer"><line x1="56" y1="684" x2="1224" y2="684" stroke="#CBD5E1" stroke-width="1" /><text x="56" y="704" font-family="Microsoft YaHei, PingFang SC, Arial, sans-serif" font-size="11" font-weight="400" fill="#94A3B8" text-anchor="start">AI ????????</text><text x="1224" y="704" font-family="Microsoft YaHei, PingFang SC, Arial, sans-serif" font-size="11" font-weight="400" fill="#94A3B8" text-anchor="end">Source: src/ai_player/algorithm_compare.py, main.py --compare</text></g></svg>