<svg xmlns="http://www.w3.org/2000/svg" width="1280" height="720" viewBox="0 0 1280 720"><g id="background"><rect x="0" y="0" width="1280" height="720" rx="0" fill="#F8FAFC" /></g><g id="header"><path fill="#2563EB" d="M60,40 H60 A4,4 0 0 1 64,44 V76 A4,4 0 0 1 60,80 H60 A4,4 0 0 1 56,76 V44 A4,4 0 0 1 60,40 Z" /><text x="78" y="67" font-family="Microsoft YaHei, PingFang SC, Arial, sans-serif" font-size="30" font-weight="700" fill="#111827" text-anchor="start">GUI ???????????????</text><text x="78" y="96" font-family="Microsoft YaHei, PingFang SC, Arial, sans-serif" font-size="14" font-weight="400" fill="#475569" text-anchor="start">??????????????????????????????????</text><text x="1210" y="62" font-family="Microsoft YaHei, PingFang SC, Arial, sans-serif" font-size="18" font-weight="700" fill="#94A3B8" text-anchor="end">14</text></g><g id="content"><path fill="#FFFFFF" stroke="#CBD5E1" stroke-width="1" d="M99,155 H130 A4,4 0 0 1 134,159 V190 A4,4 0 0 1 130,194 H99 A4,4 0 0 1 95,190 V159 A4,4 0 0 1 99,155 Z" /><path fill="#DBEAFE" stroke="#CBD5E1" stroke-width="1" d="M144,155 H175 A4,4 0 0 1 179,159 V190 A4,4 0 0 1 175,194 H144 A4,4 0 0 1 140,190 V159 A4,4 0 0 1 144,155 Z" /><path fill="#DCFCE7" stroke="#CBD5E1" stroke-width="1" d="M189,155 H220 A4,4 0 0 1 224,159 V190 A4,4 0 0 1 220,194 H189 A4,4 0 0 1 185,190 V159 A4,4 0 0 1 189,155 Z" /><path fill="#FEF3C7" stroke="#CBD5E1" stroke-width="1" d="M234,155 H265 A4,4 0 0 1 269,159 V190 A4,4 0 0 1 265,194 H234 A4,4 0 0 1 230,190 V159 A4,4 0 0 1 234,155 Z" /><path fill="#FEE2E2" stroke="#CBD5E1" stroke-width="1" d="M279,155 H310 A4,4 0 0 1 314,159 V190 A4,4 0 0 1 310,194 H279 A4,4 0 0 1 275,190 V159 A4,4 0 0 1 279,155 Z" /><path fill="#FFFFFF" stroke="#CBD5E1" stroke-width="1" d="M324,155 H355 A4,4 0 0 1 359,159 V190 A4,4 0 0 1 355,194 H324 A4,4 0 0 1 320,190 V159 A4,4 0 0 1 324,155 Z" /><path fill="#DBEAFE" stroke="#CBD5E1" stroke-width="1" d="M369,155 H400 A4,4 0 0 1 404,159 V190 A4,4 0 0 1 400,194 H369 A4,4 0 0 1 365,190 V159 A4,4 0 0 1 369,155 Z" /><path fill="#DCFCE7" stroke="#CBD5E1" stroke-width="1" d="M414,155 H445 A4,4 0 0 1 449,159 V190 A4,4 0 0 1 445,194 H414 A4,4 0 0 1 410,190 V159 A4,4 0 0 1 414,155 Z" /><path fill="#FEF3C7" stroke="#CBD5E1" stroke-width="1" d="M459,155 H490 A4,4 0 0 1 494,159 V190 A4,4 0 0 1 490,194 H459 A4,4 0 0 1 455,190 V159 A4,4 0 0 1 459,155 Z" /><path fill="#FFFFFF" stroke="#CBD5E1" stroke-width="1" d="M99,200 H130 A4,4 0 0 1 134,204 V235 A4,4 0 0 1 130,239 H99 A4,4 0 0 1 95,235 V204 A4,4 0 0 1 99,200 Z" /><path fill="#DCFCE7" stroke="#CBD5E1" stroke-width="1" d="M144,200 H175 A4,4 0 0 1 179,204 V235 A4,4 0 0 1 175,239 H144 A4,4 0 0 1 140,235 V204 A4,4 0 0 1 144,200 Z" /><path fill="#FEE2E2" stroke="#CBD5E1" stroke-width="1" d="M189,200 H220 A4,4 0 0 1 224,204 V235 A4,4 0 0 1 220,239 H189 A4,4 0 0 1 185,235 V204 A4,4 0 0 1 189,200 Z" /><path fill="#DBEAFE" stroke="#CBD5E1" stroke-width="1" d="M234,200 H265 A4,4 0 0 1 269,204 V235 A4,4 0 0 1 265,239 H234 A4,4 0 0 1 230,235 V204 A4,4 0 0 1 234,200 Z" /><path fill="#FEF3C7" stroke="#CBD5E1" stroke-width="1" d="M279,200 H310 A4,4 0 0 1 314,204 V235 A4,4 0 0 1 310,239 H279 A4,4 0 0 1 275,235 V204 A4,4 0 0 1 279,200 Z" /><path fill="#FFFFFF" stroke="#CBD5E1" stroke-width="1" d="M324,200 H355 A4,4 0 0 1 359,204 V235 A4,4 0 0 1 355,239 H324 A4,4 0 0 1 320,235 V204 A4,4 0 0 1 324,200 Z" /><path fill="#DCFCE7" stroke="#CBD5E1" stroke-width="1" d="M369,200 H400 A4,4 0 0 1 404,204 V235 A4,4 0 0 1 400,239 H369 A4,4 0 0 1 365,235 V204 A4,4 0 0 1 369,200 Z" /><path fill="#FEE2E2" stroke="#CBD5E1" stroke-width="1" d="M414,200 H445 A4,4 0 0 1 449,204 V235 A4,4 0 0 1 445,239 H414 A4,4 0 0 1 410,235 V204 A4,4 0 0 1 414,200 Z" /><path fill="#DBEAFE" stroke="#CBD5E1" stroke-width="1" d="M459,200 H490 A4,4 0 0 1 494,204 V235 A4,4 0 0 1 490,239 H459 A4,4 0 0 1 455,235 V204 A4,4 0 0 1 459,200 Z" /><path fill="#FFFFFF" stroke="#CBD5E1" stroke-width="1" d="M99,245 H130 A4,4 0 0 1 134,249 V280 A4,4 0 0 1 130,284 H99 A4,4 0 0 1 95,280 V249 A4,4 0 0 1 99,245 Z" /><path fill="#FEF3C7" stroke="#CBD5E1" stroke-width="1" d="M144,245 H175 A4,4 0 0 1 179,249 V280 A4,4 0 0 1 175,284 H144 A4,4 0 0 1 140,280 V249 A4,4 0 0 1 144,245 Z" /><path fill="#DBEAFE" stroke="#CBD5E1" stroke-width="1" d="M189,245 H220 A4,4 0 0 1 224,249 V280 A4,4 0 0 1 220,284 H189 A4,4 0 0 1 185,280 V249 A4,4 0 0 1 189,245 Z" /><path fill="#FEE2E2" stroke="#CBD5E1" stroke-width="1" d="M234,245 H265 A4,4 0 0 1 269,249 V280 A4,4 0 0 1 265,284 H234 A4,4 0 0 1 230,280 V249 A4,4 0 0 1 234,245 Z" /><path fill="#DCFCE7" stroke="#CBD5E1" stroke-width="1" d="M279,245 H310 A4,4 0 0 1 314,249 V280 A4,4 0 0 1 310,284 H279 A4,4 0 0 1 275,280 V249 A4,4 0 0 1 279,245 Z" /><path fill="#FFFFFF" stroke="#CBD5E1" stroke-width="1" d="M324,245 H355 A4,4 0 0 1 359,249 V280 A4,4 0 0 1 355,284 H324 A4,4 0 0 1 320,280 V249 A4,4 0 0 1 324,245 Z" /><path fill="#FEF3C7" stroke="#CBD5E1" stroke-width="1" d="M369,245 H400 A4,4 0 0 1 404,249 V280 A4,4 0 0 1 400,284 H369 A4,4 0 0 1 365,280 V249 A4,4 0 0 1 369,245 Z" /><path fill="#DBEAFE" stroke="#CBD5E1" stroke-width="1" d="M414,245 H445 A4,4 0 0 1 449,249 V280 A4,4 0 0 1 445,284 H414 A4,4 0 0 1 410,280 V249 A4,4 0 0 1 414,245 Z" /><path fill="#FEE2E2" stroke="#CBD5E1" stroke-width="1" d="M459,245 H490 A4,4 0 0 1 494,249 V280 A4,4 0 0 1 490,284 H459 A4,4 0 0 1 455,280 V249 A4,4 0 0 1 459,245 Z" /><path fill="#FFFFFF" stroke="#CBD5E1" stroke-width="1" d="M99,290 H130 A4,4 0 0 1 134,294 V325 A4,4 0 0 1 130,329 H99 A4,4 0 0 1 95,325 V294 A4,4 0 0 1 99,290 Z" /><path fill="#FEE2E2" stroke="#CBD5E1" stroke-width="1" d="M144,290 H175 A4,4 0 0 1 179,294 V325 A4,4 0 0 1 175,329 H144 A4,4 0 0 1 140,325 V294 A4,4 0 0 1 144,290 Z" /><path fill="#FEF3C7" stroke="#CBD5E1" stroke-width="1" d="M189,290 H220 A4,4 0 0 1 224,294 V325 A4,4 0 0 1 220,329 H189 A4,4 0 0 1 185,325 V294 A4,4 0 0 1 189,290 Z" /><path fill="#DCFCE7" stroke="#CBD5E1" stroke-width="1" d="M234,290 H265 A4,4 0 0 1 269,294 V325 A4,4 0 0 1 265,329 H234 A4,4 0 0 1 230,325 V294 A4,4 0 0 1 234,290 Z" /><path fill="#DBEAFE" stroke="#CBD5E1" stroke-width="1" d="M279,290 H310 A4,4 0 0 1 314,294 V325 A4,4 0 0 1 310,329 H279 A4,4 0 0 1 275,325 V294 A4,4 0 0 1 279,290 Z" /><path fill="#FFFFFF" stroke="#CBD5E1" stroke-width="1" d="M324,290 H355 A4,4 0 0 1 359,294 V325 A4,4 0 0 1 355,329 H324 A4,4 0 0 1 320,325 V294 A4,4 0 0 1 324,290 Z" /><path fill="#FEE2E2" stroke="#CBD5E1" stroke-width="1" d="M369,290 H400 A4,4 0 0 1 404,294 V325 A4,4 0 0 1 400,329 H369 A4,4 0 0 1 365,325 V294 A4,4 0 0 1 369,290 Z" /><path fill="#FEF3C7" stroke="#CBD5E1" stroke-width="1" d="M414,290 H445 A4,4 0 0 1 449,294 V325 A4,4 0 0 1 445,329 H414 A4,4 0 0 1 410,325 V294 A4,4 0 0 1 414,290 Z" /><path fill="#DCFCE7" stroke="#CBD5E1" stroke-width="1" d="M459,290 H490 A4,4 0 0 1 494,294 V325 A4,4 0 0 1 490,329 H459 A4,4 0 0 1 455,325 V294 A4,4 0 0 1 459,290 Z" /><path fill="#FFFFFF" stroke="#CBD5E1" stroke-width="1" d="M99,335 H130 A4,4 0 0 1 134,339 V370 A4,4 0 0 1 130,374 H99 A4,4 0 0 1 95,370 V339 A4,4 0 0 1 99,335 Z" /><path fill="#FFFFFF" stroke="#CBD5E1" stroke-width="1" d="M144,335 H175 A4,4 0 0 1 179,339 V370 A4,4 0 0 1 175,374 H144 A4,4 0 0 1 140,370 V339 A4,4 0 0 1 144,335 Z" /><path fill="#FFFFFF" stroke="#CBD5E1" stroke-width="1" d="M189,335 H220 A4,4 0 0 1 224,339 V370 A4,4 0 0 1 220,374 H189 A4,4 0 0 1 185,370 V339 A4,4 0 0 1 189,335 Z" /><path fill="#FFFFFF" stroke="#CBD5E1" stroke-width="1" d="M234,335 H265 A4,4 0 0 1 269,339 V370 A4,4 0 0 1 265,374 H234 A4,4 0 0 1 230,370 V339 A4,4 0 0 1 234,335 Z" /><path fill="#FFFFFF" stroke="#CBD5E1" stroke-width="1" d="M279,335 H310 A4,4 0 0 1 314,339 V370 A4,4 0 0 1 310,374 H279 A4,4 0 0 1 275,370 V339 A4,4 0 0 1 279,335 Z" /><path fill="#FFFFFF" stroke="#CBD5E1" stroke-width="1" d="M324,335 H355 A4,4 0 0 1 359,339 V370 A4,4 0 0 1 355,374 H324 A4,4 0 0 1 320,370 V339 A4,4 0 0 1 324,335 Z" /><path fill="#FFFFFF" stroke="#CBD5E1" stroke-width="1" d="M369,335 H400 A4,4 0 0 1 404,339 V370 A4,4 0 0 1 400,374 H369 A4,4 0 0 1 365,370 V339 A4,4 0 0 1 369,335 Z" /><path fill="#FFFFFF" stroke="#CBD5E1" stroke-width="1" d="M414,335 H445 A4,4 0 0 1 449,339 V370 A4,4 0 0 1 445,374 H414 A4,4 0 0 1 410,370 V339 A4,4 0 0 1 414,335 Z" /><path fill="#FFFFFF" stroke="#CBD5E1" stroke-width="1" d="M459,335 H490 A4,4 0 0 1 494,339 V370 A4,4 0 0 1 490,374 H459 A4,4 0 0 1 455,370 V339 A4,4 0 0 1 459,335 Z" /><path fill="#FFFFFF" stroke="#CBD5E1" stroke-width="1" d="M99,380 H130 A4,4 0 0 1 134,384 V415 A4,4 0 0 1 130,419 H99 A4,4 0 0 1 95,415 V384 A4,4 0 0 1 99,380 Z" /><path fill="#DBEAFE" stroke="#CBD5E1" stroke-width="1" d="M144,380 H175 A4,4 0 0 1 179,384 V415 A4,4 0 0 1 175,419 H144 A4,4 0 0 1 140,415 V384 A4,4 0 0 1 144,380 Z" /><path fill="#DCFCE7" stroke="#CBD5E1" stroke-width="1" d="M189,380 H220 A4,4 0 0 1 224,384 V415 A4,4 0 0 1 220,419 H189 A4,4 0 0 1 185,415 V384 A4,4 0 0 1 189,380 Z" /><path fill="#FEF3C7" stroke="#CBD5E1" stroke-width="1" d="M234,380 H265 A4,4 0 0 1 269,384 V415 A4,4 0 0 1 265,419 H234 A4,4 0 0 1 230,415 V384 A4,4 0 0 1 234,380 Z" /><path fill="#FEE2E2" stroke="#CBD5E1" stroke-width="1" d="M279,380 H310 A4,4 0 0 1 314,384 V415 A4,4 0 0 1 310,419 H279 A4,4 0 0 1 275,415 V384 A4,4 0 0 1 279,380 Z" /><path fill="#FFFFFF" stroke="#CBD5E1" stroke-width="1" d="M324,380 H355 A4,4 0 0 1 359,384 V415 A4,4 0 0 1 355,419 H324 A4,4 0 0 1 320,415 V384 A4,4 0 0 1 324,380 Z" /><path fill="#DBEAFE" stroke="#CBD5E1" stroke-width="1" d="M369,380 H400 A4,4 0 0 1 404,384 V415 A4,4 0 0 1 400,419 H369 A4,4 0 0 1 365,415 V384 A4,4 0 0 1 369,380 Z" /><path fill="#DCFCE7" stroke="#CBD5E1" stroke-width="1" d="M414,380 H445 A4,4 0 0 1 449,384 V415 A4,4 0 0 1 445,419 H414 A4,4 0 0 1 410,415 V384 A4,4 0 0 1 414,380 Z" /><path fill="#FEF3C7" stroke="#CBD5E1" stroke-width="1" d="M459,380 H490 A4,4 0 0 1 494,384 V415 A4,4 0 0 1 490,419 H459 A4,4 0 0 1 455,415 V384 A4,4 0 0 1 459,380 Z" /><path fill="#FFFFFF" stroke="#CBD5E1" stroke-width="1" d="M99,425 H130 A4,4 0 0 1 134,429 V460 A4,4 0 0 1 130,464 H99 A4,4 0 0 1 95,460 V429 A4,4 0 0 1 99,425 Z" /><path fill="#DCFCE7" stroke="#CBD5E1" stroke-width="1" d="M144,425 H175 A4,4 0 0 1 179,429 V460 A4,4 0 0 1 175,464 H144 A4,4 0 0 1 140,460 V429 A4,4 0 0 1 144,425 Z" /><path fill="#FEE2E2" stroke="#CBD5E1" stroke-width="1" d="M189,425 H220 A4,4 0 0 1 224,429 V460 A4,4 0 0 1 220,464 H189 A4,4 0 0 1 185,460 V429 A4,4 0 0 1 189,425 Z" /><path fill="#DBEAFE" stroke="#CBD5E1" stroke-width="1" d="M234,425 H265 A4,4 0 0 1 269,429 V460 A4,4 0 0 1 265,464 H234 A4,4 0 0 1 230,460 V429 A4,4 0 0 1 234,425 Z" /><path fill="#FEF3C7" stroke="#CBD5E1" stroke-width="1" d="M279,425 H310 A4,4 0 0 1 314,429 V460 A4,4 0 0 1 310,464 H279 A4,4 0 0 1 275,460 V429 A4,4 0 0 1 279,425 Z" /><path fill="#FFFFFF" stroke="#CBD5E1" stroke-width="1" d="M324,425 H355 A4,4 0 0 1 359,429 V460 A4,4 0 0 1 355,464 H324 A4,4 0 0 1 320,460 V429 A4,4 0 0 1 324,425 Z" /><path fill="#DCFCE7" stroke="#CBD5E1" stroke-width="1" d="M369,425 H400 A4,4 0 0 1 404,429 V460 A4,4 0 0 1 400,464 H369 A4,4 0 0 1 365,460 V429 A4,4 0 0 1 369,425 Z" /><path fill="#FEE2E2" stroke="#CBD5E1" stroke-width="1" d="M414,425 H445 A4,4 0 0 1 449,429 V460 A4,4 0 0 1 445,464 H414 A4,4 0 0 1 410,460 V429 A4,4 0 0 1 414,425 Z" /><path fill="#DBEAFE" stroke="#CBD5E1" stroke-width="1" d="M459,425 H490 A4,4 0 0 1 494,429 V460 A4,4 0 0 1 490,464 H459 A4,4 0 0 1 455,460 V429 A4,4 0 0 1 459,425 Z" /><path fill="#FFFFFF" stroke="#CBD5E1" stroke-width="1" d="M99,470 H130 A4,4 0 0 1 134,474 V505 A4,4 0 0 1 130,509 H99 A4,4 0 0 1 95,505 V474 A4,4 0 0 1 99,470 Z" /><path fill="#FEF3C7" stroke="#CBD5E1" stroke-width="1" d="M144,470 H175 A4,4 0 0 1 179,474 V505 A4,4 0 0 1 175,509 H144 A4,4 0 0 1 140,505 V474 A4,4 0 0 1 144,470 Z" /><path fill="#DBEAFE" stroke="#CBD5E1" stroke-width="1" d="M189,470 H220 A4,4 0 0 1 224,474 V505 A4,4 0 0 1 220,509 H189 A4,4 0 0 1 185,505 V474 A4,4 0 0 1 189,470 Z" /><path fill="#FEE2E2" stroke="#CBD5E1" stroke-width="1" d="M234,470 H265 A4,4 0 0 1 269,474 V505 A4,4 0 0 1 265,509 H234 A4,4 0 0 1 230,505 V474 A4,4 0 0 1 234,470 Z" /><path fill="#DCFCE7" stroke="#CBD5E1" stroke-width="1" d="M279,470 H310 A4,4 0 0 1 314,474 V505 A4,4 0 0 1 310,509 H279 A4,4 0 0 1 275,505 V474 A4,4 0 0 1 279,470 Z" /><path fill="#FFFFFF" stroke="#CBD5E1" stroke-width="1" d="M324,470 H355 A4,4 0 0 1 359,474 V505 A4,4 0 0 1 355,509 H324 A4,4 0 0 1 320,505 V474 A4,4 0 0 1 324,470 Z" /><path fill="#FEF3C7" stroke="#CBD5E1" stroke-width="1" d="M369,470 H400 A4,4 0 0 1 404,474 V505 A4,4 0 0 1 400,509 H369 A4,4 0 0 1 365,505 V474 A4,4 0 0 1 369,470 Z" /><path fill="#DBEAFE" stroke="#CBD5E1" stroke-width="1" d="M414,470 H445 A4,4 0 0 1 449,474 V505 A4,4 0 0 1 445,509 H414 A4,4 0 0 1 410,505 V474 A4,4 0 0 1 414,470 Z" /><path fill="#FEE2E2" stroke="#CBD5E1" stroke-width="1" d="M459,470 H490 A4,4 0 0 1 494,474 V505 A4,4 0 0 1 490,509 H459 A4,4 0 0 1 455,505 V474 A4,4 0 0 1 459,470 Z" /><path fill="#FFFFFF" stroke="#CBD5E1" stroke-width="1" d="M99,515 H130 A4,4 0 0 1 134,519 V550 A4,4 0 0 1 130,554 H99 A4,4 0 0 1 95,550 V519 A4,4 0 0 1 99,515 Z" /><path fill="#FEE2E2" stroke="#CBD5E1" stroke-width="1" d="M144,515 H175 A4,4 0 0 1 179,519 V550 A4,4 0 0 1 175,554 H144 A4,4 0 0 1 140,550 V519 A4,4 0 0 1 144,515 Z" /><path fill="#FEF3C7" stroke="#CBD5E1" stroke-width="1" d="M189,515 H220 A4,4 0 0 1 224,519 V550 A4,4 0 0 1 220,554 H189 A4,4 0 0 1 185,550 V519 A4,4 0 0 1 189,515 Z" /><path fill="#DCFCE7" stroke="#CBD5E1" stroke-width="1" d="M234,515 H265 A4,4 0 0 1 269,519 V550 A4,4 0 0 1 265,554 H234 A4,4 0 0 1 230,550 V519 A4,4 0 0 1 234,515 Z" /><path fill="#DBEAFE" stroke="#CBD5E1" stroke-width="1" d="M279,515 H310 A4,4 0 0 1 314,519 V550 A4,4 0 0 1 310,554 H279 A4,4 0 0 1 275,550 V519 A4,4 0 0 1 279,515 Z" /><path fill="#FFFFFF" stroke="#CBD5E1" stroke-width="1" d="M324,515 H355 A4,4 0 0 1 359,519 V550 A4,4 0 0 1 355,554 H324 A4,4 0 0 1 320,550 V519 A4,4 0 0 1 324,515 Z" /><path fill="#FEE2E2" stroke="#CBD5E1" stroke-width="1" d="M369,515 H400 A4,4 0 0 1 404,519 V550 A4,4 0 0 1 400,554 H369 A4,4 0 0 1 365,550 V519 A4,4 0 0 1 369,515 Z" /><path fill="#FEF3C7" stroke="#CBD5E1" stroke-width="1" d="M414,515 H445 A4,4 0 0 1 449,519 V550 A4,4 0 0 1 445,554 H414 A4,4 0 0 1 410,550 V519 A4,4 0 0 1 414,515 Z" /><path fill="#DCFCE7" stroke="#CBD5E1" stroke-width="1" d="M459,515 H490 A4,4 0 0 1 494,519 V550 A4,4 0 0 1 490,554 H459 A4,4 0 0 1 455,550 V519 A4,4 0 0 1 459,515 Z" /><text x="300" y="590" font-family="Microsoft YaHei, PingFang SC, Arial, sans-serif" font-size="15" font-weight="600" fill="#475569" text-anchor="middle">MazeCanvas ????????????????? BOSS</text><g id="card-575-165"><path fill="#FFFFFF" stroke="#CBD5E1" stroke-width="1" d="M585,165 H1135 A10,10 0 0 1 1145,175 V260 A10,10 0 0 1 1135,270 H585 A10,10 0 0 1 575,260 V175 A10,10 0 0 1 585,165 Z" /><path fill="#2563EB" d="M578,165 H578 A3,3 0 0 1 581,168 V267 A3,3 0 0 1 578,270 H578 A3,3 0 0 1 575,267 V168 A3,3 0 0 1 578,165 Z" />
  <g transform="translate(0, 0)" fill="#000000">
    <path d="M17.997 4.17a3 3 0 0 1 2.003 2.83v12a3 3 0 0 1 -3 3h-10a3 3 0 0 1 -3 -3v-12a3 3 0 0 1 2.003 -2.83a4 4 0 0 0 3.997 3.83h4a4 4 0 0 0 3.98 -3.597zm-8.997 6.83a1 1 0 0 0 -1 1v5a1 1 0 0 0 2 0v-5a1 1 0 0 0 -1 -1m3 4a1 1 0 0 0 -1 1v1a1 1 0 0 0 2 0v-1a1 1 0 0 0 -1 -1m3 -2a1 1 0 0 0 -1 1v3a1 1 0 0 0 2 0v-3a1 1 0 0 0 -1 -1m-1 -11a2 2 0 1 1 0 4h-4a2 2 0 1 1 0 -4z" />
  </g><text x="633" y="205" font-family="Microsoft YaHei, PingFang SC, Arial, sans-serif" font-size="18" font-weight="700" fill="#111827" text-anchor="start">ExplorationWorker</text><text x="597" y="243" font-family="Microsoft YaHei, PingFang SC, Arial, sans-serif" font-size="14" font-weight="400" fill="#475569" text-anchor="start">?????? run_full()????? StepSnapshot?</text></g><g id="card-575-300"><path fill="#FFFFFF" stroke="#CBD5E1" stroke-width="1" d="M585,300 H1135 A10,10 0 0 1 1145,310 V395 A10,10 0 0 1 1135,405 H585 A10,10 0 0 1 575,395 V310 A10,10 0 0 1 585,300 Z" /><path fill="#16A34A" d="M578,300 H578 A3,3 0 0 1 581,303 V402 A3,3 0 0 1 578,405 H578 A3,3 0 0 1 575,402 V303 A3,3 0 0 1 578,300 Z" />
  <g transform="translate(0, 0)" fill="#000000">
    <path d="M17.997 4.17a3 3 0 0 1 2.003 2.83v12a3 3 0 0 1 -3 3h-10a3 3 0 0 1 -3 -3v-12a3 3 0 0 1 2.003 -2.83a4 4 0 0 0 3.997 3.83h4a4 4 0 0 0 3.98 -3.597zm-8.997 6.83a1 1 0 0 0 -1 1v5a1 1 0 0 0 2 0v-5a1 1 0 0 0 -1 -1m3 4a1 1 0 0 0 -1 1v1a1 1 0 0 0 2 0v-1a1 1 0 0 0 -1 -1m3 -2a1 1 0 0 0 -1 1v3a1 1 0 0 0 2 0v-3a1 1 0 0 0 -1 -1m-1 -11a2 2 0 1 1 0 4h-4a2 2 0 1 1 0 -4z" />
  </g><text x="633" y="340" font-family="Microsoft YaHei, PingFang SC, Arial, sans-serif" font-size="18" font-weight="700" fill="#111827" text-anchor="start">MainWindow</text><text x="597" y="378" font-family="Microsoft YaHei, PingFang SC, Arial, sans-serif" font-size="14" font-weight="400" fill="#475569" text-anchor="start">???????????????BOSS HP ????</text></g><g id="card-575-435"><path fill="#FFFFFF" stroke="#CBD5E1" stroke-width="1" d="M585,435 H1135 A10,10 0 0 1 1145,445 V530 A10,10 0 0 1 1135,540 H585 A10,10 0 0 1 575,530 V445 A10,10 0 0 1 585,435 Z" /><path fill="#F59E0B" d="M578,435 H578 A3,3 0 0 1 581,438 V537 A3,3 0 0 1 578,540 H578 A3,3 0 0 1 575,537 V438 A3,3 0 0 1 578,435 Z" />
  <g transform="translate(0, 0)" fill="#000000">
    <path d="M17.997 4.17a3 3 0 0 1 2.003 2.83v12a3 3 0 0 1 -3 3h-10a3 3 0 0 1 -3 -3v-12a3 3 0 0 1 2.003 -2.83a4 4 0 0 0 3.997 3.83h4a4 4 0 0 0 3.98 -3.597zm-8.997 6.83a1 1 0 0 0 -1 1v5a1 1 0 0 0 2 0v-5a1 1 0 0 0 -1 -1m3 4a1 1 0 0 0 -1 1v1a1 1 0 0 0 2 0v-1a1 1 0 0 0 -1 -1m3 -2a1 1 0 0 0 -1 1v3a1 1 0 0 0 2 0v-3a1 1 0 0 0 -1 -1m-1 -11a2 2 0 1 1 0 4h-4a2 2 0 1 1 0 -4z" />
  </g><text x="633" y="475" font-family="Microsoft YaHei, PingFang SC, Arial, sans-serif" font-size="18" font-weight="700" fill="#111827" text-anchor="start">????</text><text text-anchor="start" fill="#475569" font-family="Microsoft YaHei, PingFang SC, Arial, sans-serif" font-size="14" font-weight="400" x="597" y="513">export_path_png / export_heatmap_png / export_compare_png</text><text text-anchor="start" fill="#475569" font-family="Microsoft YaHei, PingFang SC, Arial, sans-serif" font-size="14" font-weight="400" x="597" y="533">/ export_boss_battle_png?</text></g></g><g id="footer"><line x1="56" y1="684" x2="1224" y2="684" stroke="#CBD5E1" stroke-width="1" /><text x="56" y="704" font-family="Microsoft YaHei, PingFang SC, Arial, sans-serif" font-size="11" font-weight="400" fill="#94A3B8" text-anchor="start">AI ????????</text><text x="1224" y="704" font-family="Microsoft YaHei, PingFang SC, Arial, sans-serif" font-size="11" font-weight="400" fill="#94A3B8" text-anchor="end">Source: gui/qt_app.py, src/ai_player/visualize.py</text></g></svg>