<svg xmlns="http://www.w3.org/2000/svg" width="1280" height="720" viewBox="0 0 1280 720"><g id="background"><rect x="0" y="0" width="1280" height="720" rx="0" fill="#F8FAFC" /></g><g id="header"><path fill="#2563EB" d="M60,40 H60 A4,4 0 0 1 64,44 V76 A4,4 0 0 1 60,80 H60 A4,4 0 0 1 56,76 V44 A4,4 0 0 1 60,40 Z" /><text x="78" y="67" font-family="Microsoft YaHei, PingFang SC, Arial, sans-serif" font-size="30" font-weight="700" fill="#111827" text-anchor="start">?????????????</text><text x="78" y="96" font-family="Microsoft YaHei, PingFang SC, Arial, sans-serif" font-size="14" font-weight="400" fill="#475569" text-anchor="start">?????????????????????????????????</text><text x="1210" y="62" font-family="Microsoft YaHei, PingFang SC, Arial, sans-serif" font-size="18" font-weight="700" fill="#94A3B8" text-anchor="end">15</text></g><g id="content"><path fill="#0F172A" d="M78,145 H1202 A8,8 0 0 1 1210,153 V181 A8,8 0 0 1 1202,189 H78 A8,8 0 0 1 70,181 V153 A8,8 0 0 1 78,145 Z" /><text x="100" y="174" font-family="Microsoft YaHei, PingFang SC, Arial, sans-serif" font-size="15" font-weight="700" fill="#FFFFFF" text-anchor="start">???</text><text x="285" y="174" font-family="Microsoft YaHei, PingFang SC, Arial, sans-serif" font-size="15" font-weight="700" fill="#FFFFFF" text-anchor="start">????</text><text x="760" y="174" font-family="Microsoft YaHei, PingFang SC, Arial, sans-serif" font-size="15" font-weight="700" fill="#FFFFFF" text-anchor="start">????</text><path fill="#FFFFFF" stroke="#CBD5E1" stroke-width="1" d="M74,198 H1206 A4,4 0 0 1 1210,202 V236 A4,4 0 0 1 1206,240 H74 A4,4 0 0 1 70,236 V202 A4,4 0 0 1 74,198 Z" /><text x="100" y="225" font-family="Microsoft YaHei, PingFang SC, Arial, sans-serif" font-size="15" font-weight="700" fill="#111827" text-anchor="start">??</text><text x="285" y="225" font-family="Consolas, Courier New, monospace" font-size="14" font-weight="600" fill="#2563EB" text-anchor="start">test_parse_external_json</text><text x="760" y="225" font-family="Microsoft YaHei, PingFang SC, Arial, sans-serif" font-size="14" font-weight="600" fill="#475569" text-anchor="start">JSON ? Maze</text><path fill="#F1F5F9" stroke="#CBD5E1" stroke-width="1" d="M74,246 H1206 A4,4 0 0 1 1210,250 V284 A4,4 0 0 1 1206,288 H74 A4,4 0 0 1 70,284 V250 A4,4 0 0 1 74,246 Z" /><text x="100" y="273" font-family="Microsoft YaHei, PingFang SC, Arial, sans-serif" font-size="15" font-weight="700" fill="#111827" text-anchor="start">??</text><text x="285" y="273" font-family="Consolas, Courier New, monospace" font-size="14" font-weight="600" fill="#2563EB" text-anchor="start">test_pathfinding_reaches_end</text><text x="760" y="273" font-family="Microsoft YaHei, PingFang SC, Arial, sans-serif" font-size="14" font-weight="600" fill="#475569" text-anchor="start">????</text><path fill="#FFFFFF" stroke="#CBD5E1" stroke-width="1" d="M74,294 H1206 A4,4 0 0 1 1210,298 V332 A4,4 0 0 1 1206,336 H74 A4,4 0 0 1 70,332 V298 A4,4 0 0 1 74,294 Z" /><text x="100" y="321" font-family="Microsoft YaHei, PingFang SC, Arial, sans-serif" font-size="15" font-weight="700" fill="#111827" text-anchor="start">BOSS</text><text x="285" y="321" font-family="Consolas, Courier New, monospace" font-size="14" font-weight="600" fill="#2563EB" text-anchor="start">test_boss_branch_and_bound_matches_bruteforce</text><text x="760" y="321" font-family="Microsoft YaHei, PingFang SC, Arial, sans-serif" font-size="14" font-weight="600" fill="#475569" text-anchor="start">???????</text><path fill="#F1F5F9" stroke="#CBD5E1" stroke-width="1" d="M74,342 H1206 A4,4 0 0 1 1210,346 V380 A4,4 0 0 1 1206,384 H74 A4,4 0 0 1 70,380 V346 A4,4 0 0 1 74,342 Z" /><text x="100" y="369" font-family="Microsoft YaHei, PingFang SC, Arial, sans-serif" font-size="15" font-weight="700" fill="#111827" text-anchor="start">??</text><text x="285" y="369" font-family="Consolas, Courier New, monospace" font-size="14" font-weight="600" fill="#2563EB" text-anchor="start">test_boss_revive_retries_until_coin_shortage</text><text x="760" y="369" font-family="Microsoft YaHei, PingFang SC, Arial, sans-serif" font-size="14" font-weight="600" fill="#475569" text-anchor="start">??????</text><path fill="#FFFFFF" stroke="#CBD5E1" stroke-width="1" d="M74,390 H1206 A4,4 0 0 1 1210,394 V428 A4,4 0 0 1 1206,432 H74 A4,4 0 0 1 70,428 V394 A4,4 0 0 1 74,390 Z" /><text x="100" y="417" font-family="Microsoft YaHei, PingFang SC, Arial, sans-serif" font-size="15" font-weight="700" fill="#111827" text-anchor="start">??</text><text x="285" y="417" font-family="Consolas, Courier New, monospace" font-size="14" font-weight="600" fill="#2563EB" text-anchor="start">test_local_3x3_greedy_cases</text><text x="760" y="417" font-family="Microsoft YaHei, PingFang SC, Arial, sans-serif" font-size="14" font-weight="600" fill="#475569" text-anchor="start">????</text><path fill="#F1F5F9" stroke="#CBD5E1" stroke-width="1" d="M74,438 H1206 A4,4 0 0 1 1210,442 V476 A4,4 0 0 1 1206,480 H74 A4,4 0 0 1 70,476 V442 A4,4 0 0 1 74,438 Z" /><text x="100" y="465" font-family="Microsoft YaHei, PingFang SC, Arial, sans-serif" font-size="15" font-weight="700" fill="#111827" text-anchor="start">Q-Learning</text><text x="285" y="465" font-family="Consolas, Courier New, monospace" font-size="14" font-weight="600" fill="#2563EB" text-anchor="start">test_q_learning_registered_as_strategy</text><text x="760" y="465" font-family="Microsoft YaHei, PingFang SC, Arial, sans-serif" font-size="14" font-weight="600" fill="#475569" text-anchor="start">?????</text><path fill="#FFFFFF" stroke="#CBD5E1" stroke-width="1" d="M74,486 H1206 A4,4 0 0 1 1210,490 V524 A4,4 0 0 1 1206,528 H74 A4,4 0 0 1 70,524 V490 A4,4 0 0 1 74,486 Z" /><text x="100" y="513" font-family="Microsoft YaHei, PingFang SC, Arial, sans-serif" font-size="15" font-weight="700" fill="#111827" text-anchor="start">??</text><text x="285" y="513" font-family="Consolas, Courier New, monospace" font-size="14" font-weight="600" fill="#2563EB" text-anchor="start">test_auto_degrades_after_no_resource_growth</text><text x="760" y="513" font-family="Microsoft YaHei, PingFang SC, Arial, sans-serif" font-size="14" font-weight="600" fill="#475569" text-anchor="start">Layer2 ??</text><path fill="#F1F5F9" stroke="#CBD5E1" stroke-width="1" d="M74,534 H1206 A4,4 0 0 1 1210,538 V572 A4,4 0 0 1 1206,576 H74 A4,4 0 0 1 70,572 V538 A4,4 0 0 1 74,534 Z" /><text x="100" y="561" font-family="Microsoft YaHei, PingFang SC, Arial, sans-serif" font-size="15" font-weight="700" fill="#111827" text-anchor="start">??</text><text x="285" y="561" font-family="Consolas, Courier New, monospace" font-size="14" font-weight="600" fill="#2563EB" text-anchor="start">test_report_exports</text><text x="760" y="561" font-family="Microsoft YaHei, PingFang SC, Arial, sans-serif" font-size="14" font-weight="600" fill="#475569" text-anchor="start">PNG ??</text><path fill="#DCFCE7" d="M106,605 H1166 A10,10 0 0 1 1176,615 V637 A10,10 0 0 1 1166,647 H106 A10,10 0 0 1 96,637 V615 A10,10 0 0 1 106,605 Z" /><text x="636" y="632" font-family="Microsoft YaHei, PingFang SC, Arial, sans-serif" font-size="16" font-weight="700" fill="#16A34A" text-anchor="middle">???????????BOSS????3x3 ???Q-Learning???????????</text></g><g id="footer"><line x1="56" y1="684" x2="1224" y2="684" stroke="#CBD5E1" stroke-width="1" /><text x="56" y="704" font-family="Microsoft YaHei, PingFang SC, Arial, sans-serif" font-size="11" font-weight="400" fill="#94A3B8" text-anchor="start">AI ????????</text><text x="1224" y="704" font-family="Microsoft YaHei, PingFang SC, Arial, sans-serif" font-size="11" font-weight="400" fill="#94A3B8" text-anchor="end">Source: tests/test_core.py, map/test_cases</text></g></svg>