<svg xmlns="http://www.w3.org/2000/svg" width="1280" height="720" viewBox="0 0 1280 720"><g id="background"><rect x="0" y="0" width="1280" height="720" rx="0" fill="#F8FAFC" /></g><g id="header"><path fill="#2563EB" d="M60,40 H60 A4,4 0 0 1 64,44 V76 A4,4 0 0 1 60,80 H60 A4,4 0 0 1 56,76 V44 A4,4 0 0 1 60,40 Z" /><text x="78" y="67" font-family="Microsoft YaHei, PingFang SC, Arial, sans-serif" font-size="30" font-weight="700" fill="#111827" text-anchor="start">??????????????</text><text x="78" y="96" font-family="Microsoft YaHei, PingFang SC, Arial, sans-serif" font-size="14" font-weight="400" fill="#475569" text-anchor="start">????????????????????????????????????</text><text x="1210" y="62" font-family="Microsoft YaHei, PingFang SC, Arial, sans-serif" font-size="18" font-weight="700" fill="#94A3B8" text-anchor="end">16</text></g><g id="content"><text x="110" y="190" font-family="Microsoft YaHei, PingFang SC, Arial, sans-serif" font-size="46" font-weight="800" fill="#DBEAFE" text-anchor="start">01</text><text x="230" y="175" font-family="Microsoft YaHei, PingFang SC, Arial, sans-serif" font-size="24" font-weight="800" fill="#111827" text-anchor="start">????</text><text x="230" y="207" font-family="Microsoft YaHei, PingFang SC, Arial, sans-serif" font-size="17" font-weight="400" fill="#475569" text-anchor="start">??????????GUI ????????????</text><line x1="110" y1="233" x2="1140" y2="233" stroke="#CBD5E1" stroke-width="1" /><text x="110" y="295" font-family="Microsoft YaHei, PingFang SC, Arial, sans-serif" font-size="46" font-weight="800" fill="#DBEAFE" text-anchor="start">02</text><text x="230" y="280" font-family="Microsoft YaHei, PingFang SC, Arial, sans-serif" font-size="24" font-weight="800" fill="#111827" text-anchor="start">????</text><text x="230" y="312" font-family="Microsoft YaHei, PingFang SC, Arial, sans-serif" font-size="17" font-weight="400" fill="#475569" text-anchor="start">Greedy?A*?BFS?Dijkstra?Adaptive?Q-Learning ???????</text><line x1="110" y1="338" x2="1140" y2="338" stroke="#CBD5E1" stroke-width="1" /><text x="110" y="400" font-family="Microsoft YaHei, PingFang SC, Arial, sans-serif" font-size="46" font-weight="800" fill="#DBEAFE" text-anchor="start">03</text><text x="230" y="385" font-family="Microsoft YaHei, PingFang SC, Arial, sans-serif" font-size="24" font-weight="800" fill="#111827" text-anchor="start">????</text><text x="230" y="417" font-family="Microsoft YaHei, PingFang SC, Arial, sans-serif" font-size="17" font-weight="400" fill="#475569" text-anchor="start">resource_step_ratio ???????????????????</text><line x1="110" y1="443" x2="1140" y2="443" stroke="#CBD5E1" stroke-width="1" /><text x="110" y="505" font-family="Microsoft YaHei, PingFang SC, Arial, sans-serif" font-size="46" font-weight="800" fill="#DBEAFE" text-anchor="start">04</text><text x="230" y="490" font-family="Microsoft YaHei, PingFang SC, Arial, sans-serif" font-size="24" font-weight="800" fill="#111827" text-anchor="start">????</text><text x="230" y="522" font-family="Microsoft YaHei, PingFang SC, Arial, sans-serif" font-size="17" font-weight="400" fill="#475569" text-anchor="start">run_ai_player.bat ???? conda suanfa ???</text><line x1="110" y1="548" x2="1140" y2="548" stroke="#CBD5E1" stroke-width="1" /><path fill="#0F172A" d="M142,595 H1138 A12,12 0 0 1 1150,607 V631 A12,12 0 0 1 1138,643 H142 A12,12 0 0 1 130,631 V607 A12,12 0 0 1 142,595 Z" /><text x="640" y="626" font-family="Consolas, Courier New, monospace" font-size="18" font-weight="700" fill="#DBEAFE" text-anchor="middle">run_ai_player.bat  gui | console | compare | local | batch | report | evaluate | qlearn | clean</text></g><g id="footer"><line x1="56" y1="684" x2="1224" y2="684" stroke="#CBD5E1" stroke-width="1" /><text x="56" y="704" font-family="Microsoft YaHei, PingFang SC, Arial, sans-serif" font-size="11" font-weight="400" fill="#94A3B8" text-anchor="start">AI ????????</text><text x="1224" y="704" font-family="Microsoft YaHei, PingFang SC, Arial, sans-serif" font-size="11" font-weight="400" fill="#94A3B8" text-anchor="end">Source: README.md, run_ai_player.bat</text></g></svg>